<svg width="789" height="180" viewBox="0 0 789 180" fill="none" xmlns="http://www.w3.org/2000/svg">
<rect width="789" height="180" fill="white"/>
<rect x="465" y="64" width="300" height="48" rx="2" fill="#EFF7CF"/>
<path d="M470.93 44.9453H468.031V43.1172H470.93C471.378 43.1172 471.742 43.0443 472.023 42.8984C472.305 42.7474 472.51 42.5391 472.641 42.2734C472.771 42.0078 472.836 41.7083 472.836 41.375C472.836 41.0365 472.771 40.7214 472.641 40.4297C472.51 40.138 472.305 39.9036 472.023 39.7266C471.742 39.5495 471.378 39.4609 470.93 39.4609H468.844V49H466.5V37.625H470.93C471.82 37.625 472.583 37.7865 473.219 38.1094C473.859 38.4271 474.349 38.8672 474.688 39.4297C475.026 39.9922 475.195 40.6354 475.195 41.3594C475.195 42.0938 475.026 42.7292 474.688 43.2656C474.349 43.8021 473.859 44.2161 473.219 44.5078C472.583 44.7995 471.82 44.9453 470.93 44.9453ZM479.047 37V49H476.789V37H479.047ZM485.469 47.0938V43.3281C485.469 43.0573 485.424 42.8255 485.336 42.6328C485.247 42.4349 485.109 42.2812 484.922 42.1719C484.74 42.0625 484.503 42.0078 484.211 42.0078C483.961 42.0078 483.745 42.0521 483.562 42.1406C483.38 42.224 483.24 42.3464 483.141 42.5078C483.042 42.6641 482.992 42.849 482.992 43.0625H480.742C480.742 42.7031 480.826 42.362 480.992 42.0391C481.159 41.7161 481.401 41.4323 481.719 41.1875C482.036 40.9375 482.414 40.7422 482.852 40.6016C483.294 40.4609 483.789 40.3906 484.336 40.3906C484.992 40.3906 485.576 40.5 486.086 40.7188C486.596 40.9375 486.997 41.2656 487.289 41.7031C487.586 42.1406 487.734 42.6875 487.734 43.3438V46.9609C487.734 47.4245 487.763 47.8047 487.82 48.1016C487.878 48.3932 487.961 48.6484 488.07 48.8672V49H485.797C485.688 48.7708 485.604 48.4844 485.547 48.1406C485.495 47.7917 485.469 47.4427 485.469 47.0938ZM485.766 43.8516L485.781 45.125H484.523C484.227 45.125 483.969 45.1589 483.75 45.2266C483.531 45.2943 483.352 45.3906 483.211 45.5156C483.07 45.6354 482.966 45.776 482.898 45.9375C482.836 46.099 482.805 46.276 482.805 46.4688C482.805 46.6615 482.849 46.8359 482.938 46.9922C483.026 47.1432 483.154 47.263 483.32 47.3516C483.487 47.4349 483.682 47.4766 483.906 47.4766C484.245 47.4766 484.539 47.4089 484.789 47.2734C485.039 47.138 485.232 46.9714 485.367 46.7734C485.508 46.5755 485.581 46.388 485.586 46.2109L486.18 47.1641C486.096 47.3776 485.982 47.599 485.836 47.8281C485.695 48.0573 485.516 48.2734 485.297 48.4766C485.078 48.6745 484.815 48.8385 484.508 48.9688C484.201 49.0938 483.836 49.1562 483.414 49.1562C482.878 49.1562 482.391 49.0495 481.953 48.8359C481.521 48.6172 481.177 48.3177 480.922 47.9375C480.672 47.5521 480.547 47.1146 480.547 46.625C480.547 46.1823 480.63 45.7891 480.797 45.4453C480.964 45.1016 481.208 44.8125 481.531 44.5781C481.859 44.3385 482.268 44.1589 482.758 44.0391C483.247 43.9141 483.815 43.8516 484.461 43.8516H485.766ZM493.609 40.5469V42.1406H488.688V40.5469H493.609ZM489.906 38.4609H492.156V46.4531C492.156 46.6979 492.188 46.8854 492.25 47.0156C492.318 47.1458 492.417 47.237 492.547 47.2891C492.677 47.3359 492.841 47.3594 493.039 47.3594C493.18 47.3594 493.305 47.3542 493.414 47.3438C493.529 47.3281 493.625 47.3125 493.703 47.2969L493.711 48.9531C493.518 49.0156 493.31 49.0651 493.086 49.1016C492.862 49.138 492.615 49.1562 492.344 49.1562C491.849 49.1562 491.417 49.0755 491.047 48.9141C490.682 48.7474 490.401 48.4818 490.203 48.1172C490.005 47.7526 489.906 47.2734 489.906 46.6797V38.4609ZM497.758 49H495.492V39.7969C495.492 39.1562 495.617 38.6172 495.867 38.1797C496.122 37.737 496.479 37.4036 496.938 37.1797C497.401 36.9505 497.951 36.8359 498.586 36.8359C498.794 36.8359 498.995 36.8516 499.188 36.8828C499.38 36.9089 499.568 36.9427 499.75 36.9844L499.727 38.6797C499.628 38.6536 499.523 38.6354 499.414 38.625C499.305 38.6146 499.177 38.6094 499.031 38.6094C498.76 38.6094 498.529 38.6562 498.336 38.75C498.148 38.8385 498.005 38.9714 497.906 39.1484C497.807 39.3255 497.758 39.5417 497.758 39.7969V49ZM499.445 40.5469V42.1406H494.234V40.5469H499.445ZM500.266 44.8594V44.6953C500.266 44.0755 500.354 43.5052 500.531 42.9844C500.708 42.4583 500.966 42.0026 501.305 41.6172C501.643 41.2318 502.06 40.9323 502.555 40.7188C503.049 40.5 503.617 40.3906 504.258 40.3906C504.898 40.3906 505.469 40.5 505.969 40.7188C506.469 40.9323 506.888 41.2318 507.227 41.6172C507.57 42.0026 507.831 42.4583 508.008 42.9844C508.185 43.5052 508.273 44.0755 508.273 44.6953V44.8594C508.273 45.474 508.185 46.0443 508.008 46.5703C507.831 47.0911 507.57 47.5469 507.227 47.9375C506.888 48.3229 506.471 48.6224 505.977 48.8359C505.482 49.0495 504.914 49.1562 504.273 49.1562C503.633 49.1562 503.062 49.0495 502.562 48.8359C502.068 48.6224 501.648 48.3229 501.305 47.9375C500.966 47.5469 500.708 47.0911 500.531 46.5703C500.354 46.0443 500.266 45.474 500.266 44.8594ZM502.516 44.6953V44.8594C502.516 45.2135 502.547 45.5443 502.609 45.8516C502.672 46.1589 502.771 46.4297 502.906 46.6641C503.047 46.8932 503.229 47.0729 503.453 47.2031C503.677 47.3333 503.951 47.3984 504.273 47.3984C504.586 47.3984 504.854 47.3333 505.078 47.2031C505.302 47.0729 505.482 46.8932 505.617 46.6641C505.753 46.4297 505.852 46.1589 505.914 45.8516C505.982 45.5443 506.016 45.2135 506.016 44.8594V44.6953C506.016 44.3516 505.982 44.0286 505.914 43.7266C505.852 43.4193 505.75 43.1484 505.609 42.9141C505.474 42.6745 505.294 42.487 505.07 42.3516C504.846 42.2161 504.576 42.1484 504.258 42.1484C503.94 42.1484 503.669 42.2161 503.445 42.3516C503.227 42.487 503.047 42.6745 502.906 42.9141C502.771 43.1484 502.672 43.4193 502.609 43.7266C502.547 44.0286 502.516 44.3516 502.516 44.6953ZM511.906 42.3906V49H509.656V40.5469H511.773L511.906 42.3906ZM514.453 40.4922L514.414 42.5781C514.305 42.5625 514.172 42.5495 514.016 42.5391C513.865 42.5234 513.727 42.5156 513.602 42.5156C513.284 42.5156 513.008 42.5573 512.773 42.6406C512.544 42.7188 512.352 42.8359 512.195 42.9922C512.044 43.1484 511.93 43.3385 511.852 43.5625C511.779 43.7865 511.737 44.0417 511.727 44.3281L511.273 44.1875C511.273 43.6406 511.328 43.138 511.438 42.6797C511.547 42.2161 511.706 41.8125 511.914 41.4688C512.128 41.125 512.388 40.8594 512.695 40.6719C513.003 40.4844 513.354 40.3906 513.75 40.3906C513.875 40.3906 514.003 40.401 514.133 40.4219C514.263 40.4375 514.37 40.4609 514.453 40.4922ZM517.766 42.2969V49H515.508V40.5469H517.625L517.766 42.2969ZM517.453 44.4766H516.828C516.828 43.888 516.898 43.3464 517.039 42.8516C517.185 42.3516 517.396 41.9193 517.672 41.5547C517.953 41.1849 518.299 40.8984 518.711 40.6953C519.122 40.4922 519.599 40.3906 520.141 40.3906C520.516 40.3906 520.859 40.4479 521.172 40.5625C521.484 40.6719 521.753 40.8464 521.977 41.0859C522.206 41.3203 522.383 41.6276 522.508 42.0078C522.633 42.3828 522.695 42.8333 522.695 43.3594V49H520.445V43.6094C520.445 43.224 520.393 42.9271 520.289 42.7188C520.185 42.5104 520.036 42.3646 519.844 42.2812C519.656 42.1979 519.43 42.1562 519.164 42.1562C518.872 42.1562 518.617 42.2161 518.398 42.3359C518.185 42.4557 518.008 42.6224 517.867 42.8359C517.727 43.0443 517.622 43.2891 517.555 43.5703C517.487 43.8516 517.453 44.1536 517.453 44.4766ZM522.484 44.2188L521.68 44.3203C521.68 43.7682 521.747 43.2552 521.883 42.7812C522.023 42.3073 522.229 41.8906 522.5 41.5312C522.776 41.1719 523.117 40.8932 523.523 40.6953C523.93 40.4922 524.398 40.3906 524.93 40.3906C525.336 40.3906 525.706 40.4505 526.039 40.5703C526.372 40.6849 526.656 40.8698 526.891 41.125C527.13 41.375 527.312 41.7031 527.438 42.1094C527.568 42.5156 527.633 43.013 527.633 43.6016V49H525.375V43.6016C525.375 43.2109 525.323 42.9141 525.219 42.7109C525.12 42.5026 524.974 42.3594 524.781 42.2812C524.594 42.1979 524.37 42.1562 524.109 42.1562C523.839 42.1562 523.602 42.2109 523.398 42.3203C523.195 42.4245 523.026 42.5703 522.891 42.7578C522.755 42.9453 522.654 43.1641 522.586 43.4141C522.518 43.6589 522.484 43.9271 522.484 44.2188ZM539.422 46.0234C539.422 45.8203 539.391 45.638 539.328 45.4766C539.271 45.3099 539.161 45.1589 539 45.0234C538.839 44.8828 538.612 44.7448 538.32 44.6094C538.029 44.474 537.651 44.3333 537.188 44.1875C536.672 44.0208 536.182 43.8333 535.719 43.625C535.26 43.4167 534.854 43.1745 534.5 42.8984C534.151 42.6172 533.875 42.2917 533.672 41.9219C533.474 41.5521 533.375 41.1224 533.375 40.6328C533.375 40.1589 533.479 39.7292 533.688 39.3438C533.896 38.9531 534.188 38.6198 534.562 38.3438C534.938 38.0625 535.38 37.8464 535.891 37.6953C536.406 37.5443 536.971 37.4688 537.586 37.4688C538.424 37.4688 539.156 37.6198 539.781 37.9219C540.406 38.224 540.891 38.638 541.234 39.1641C541.583 39.6901 541.758 40.2917 541.758 40.9688H539.43C539.43 40.6354 539.359 40.3438 539.219 40.0938C539.083 39.8385 538.875 39.638 538.594 39.4922C538.318 39.3464 537.969 39.2734 537.547 39.2734C537.141 39.2734 536.802 39.3359 536.531 39.4609C536.26 39.5807 536.057 39.7448 535.922 39.9531C535.786 40.1562 535.719 40.3854 535.719 40.6406C535.719 40.8333 535.766 41.0078 535.859 41.1641C535.958 41.3203 536.104 41.4661 536.297 41.6016C536.49 41.737 536.727 41.8646 537.008 41.9844C537.289 42.1042 537.615 42.2214 537.984 42.3359C538.604 42.5234 539.148 42.7344 539.617 42.9688C540.091 43.2031 540.487 43.4661 540.805 43.7578C541.122 44.0495 541.362 44.3802 541.523 44.75C541.685 45.1198 541.766 45.5391 541.766 46.0078C541.766 46.5026 541.669 46.9453 541.477 47.3359C541.284 47.7266 541.005 48.0573 540.641 48.3281C540.276 48.599 539.841 48.8047 539.336 48.9453C538.831 49.0859 538.266 49.1562 537.641 49.1562C537.078 49.1562 536.523 49.0833 535.977 48.9375C535.43 48.7865 534.932 48.5599 534.484 48.2578C534.042 47.9557 533.688 47.5703 533.422 47.1016C533.156 46.6328 533.023 46.0781 533.023 45.4375H535.375C535.375 45.7917 535.43 46.0911 535.539 46.3359C535.648 46.5807 535.802 46.7786 536 46.9297C536.203 47.0807 536.443 47.1901 536.719 47.2578C537 47.3255 537.307 47.3594 537.641 47.3594C538.047 47.3594 538.38 47.3021 538.641 47.1875C538.906 47.0729 539.102 46.9141 539.227 46.7109C539.357 46.5078 539.422 46.2786 539.422 46.0234ZM547.359 40.5469V42.1406H542.438V40.5469H547.359ZM543.656 38.4609H545.906V46.4531C545.906 46.6979 545.938 46.8854 546 47.0156C546.068 47.1458 546.167 47.237 546.297 47.2891C546.427 47.3359 546.591 47.3594 546.789 47.3594C546.93 47.3594 547.055 47.3542 547.164 47.3438C547.279 47.3281 547.375 47.3125 547.453 47.2969L547.461 48.9531C547.268 49.0156 547.06 49.0651 546.836 49.1016C546.612 49.138 546.365 49.1562 546.094 49.1562C545.599 49.1562 545.167 49.0755 544.797 48.9141C544.432 48.7474 544.151 48.4818 543.953 48.1172C543.755 47.7526 543.656 47.2734 543.656 46.6797V38.4609ZM553.203 47.0938V43.3281C553.203 43.0573 553.159 42.8255 553.07 42.6328C552.982 42.4349 552.844 42.2812 552.656 42.1719C552.474 42.0625 552.237 42.0078 551.945 42.0078C551.695 42.0078 551.479 42.0521 551.297 42.1406C551.115 42.224 550.974 42.3464 550.875 42.5078C550.776 42.6641 550.727 42.849 550.727 43.0625H548.477C548.477 42.7031 548.56 42.362 548.727 42.0391C548.893 41.7161 549.135 41.4323 549.453 41.1875C549.771 40.9375 550.148 40.7422 550.586 40.6016C551.029 40.4609 551.523 40.3906 552.07 40.3906C552.727 40.3906 553.31 40.5 553.82 40.7188C554.331 40.9375 554.732 41.2656 555.023 41.7031C555.32 42.1406 555.469 42.6875 555.469 43.3438V46.9609C555.469 47.4245 555.497 47.8047 555.555 48.1016C555.612 48.3932 555.695 48.6484 555.805 48.8672V49H553.531C553.422 48.7708 553.339 48.4844 553.281 48.1406C553.229 47.7917 553.203 47.4427 553.203 47.0938ZM553.5 43.8516L553.516 45.125H552.258C551.961 45.125 551.703 45.1589 551.484 45.2266C551.266 45.2943 551.086 45.3906 550.945 45.5156C550.805 45.6354 550.701 45.776 550.633 45.9375C550.57 46.099 550.539 46.276 550.539 46.4688C550.539 46.6615 550.583 46.8359 550.672 46.9922C550.76 47.1432 550.888 47.263 551.055 47.3516C551.221 47.4349 551.417 47.4766 551.641 47.4766C551.979 47.4766 552.273 47.4089 552.523 47.2734C552.773 47.138 552.966 46.9714 553.102 46.7734C553.242 46.5755 553.315 46.388 553.32 46.2109L553.914 47.1641C553.831 47.3776 553.716 47.599 553.57 47.8281C553.43 48.0573 553.25 48.2734 553.031 48.4766C552.812 48.6745 552.549 48.8385 552.242 48.9688C551.935 49.0938 551.57 49.1562 551.148 49.1562C550.612 49.1562 550.125 49.0495 549.688 48.8359C549.255 48.6172 548.911 48.3177 548.656 47.9375C548.406 47.5521 548.281 47.1146 548.281 46.625C548.281 46.1823 548.365 45.7891 548.531 45.4453C548.698 45.1016 548.943 44.8125 549.266 44.5781C549.594 44.3385 550.003 44.1589 550.492 44.0391C550.982 43.9141 551.549 43.8516 552.195 43.8516H553.5ZM557.203 37H559.453V47.0625L559.227 49H557.203V37ZM564.805 44.6875V44.8516C564.805 45.4818 564.737 46.0599 564.602 46.5859C564.471 47.112 564.268 47.5677 563.992 47.9531C563.716 48.3333 563.372 48.6302 562.961 48.8438C562.555 49.0521 562.076 49.1562 561.523 49.1562C561.008 49.1562 560.56 49.0521 560.18 48.8438C559.805 48.6354 559.49 48.3411 559.234 47.9609C558.979 47.5807 558.773 47.1354 558.617 46.625C558.461 46.1146 558.344 45.5573 558.266 44.9531V44.5938C558.344 43.9896 558.461 43.4323 558.617 42.9219C558.773 42.4115 558.979 41.9661 559.234 41.5859C559.49 41.2057 559.805 40.9115 560.18 40.7031C560.555 40.4948 560.997 40.3906 561.508 40.3906C562.065 40.3906 562.549 40.4974 562.961 40.7109C563.378 40.9193 563.721 41.2161 563.992 41.6016C564.268 41.9818 564.471 42.4349 564.602 42.9609C564.737 43.4818 564.805 44.0573 564.805 44.6875ZM562.555 44.8516V44.6875C562.555 44.3438 562.529 44.0208 562.477 43.7188C562.43 43.4115 562.346 43.1432 562.227 42.9141C562.107 42.6797 561.943 42.4948 561.734 42.3594C561.531 42.224 561.268 42.1562 560.945 42.1562C560.638 42.1562 560.378 42.2083 560.164 42.3125C559.951 42.4167 559.773 42.5625 559.633 42.75C559.497 42.9375 559.396 43.1615 559.328 43.4219C559.26 43.6771 559.219 43.9583 559.203 44.2656V45.2891C559.219 45.7005 559.286 46.0651 559.406 46.3828C559.531 46.6953 559.719 46.9427 559.969 47.125C560.224 47.3021 560.555 47.3906 560.961 47.3906C561.279 47.3906 561.542 47.3281 561.75 47.2031C561.958 47.0781 562.12 46.901 562.234 46.6719C562.354 46.4427 562.438 46.1745 562.484 45.8672C562.531 45.5547 562.555 45.2161 562.555 44.8516ZM568.578 40.5469V49H566.32V40.5469H568.578ZM566.18 38.3438C566.18 38.0156 566.294 37.7448 566.523 37.5312C566.753 37.3177 567.06 37.2109 567.445 37.2109C567.826 37.2109 568.13 37.3177 568.359 37.5312C568.594 37.7448 568.711 38.0156 568.711 38.3438C568.711 38.6719 568.594 38.9427 568.359 39.1562C568.13 39.3698 567.826 39.4766 567.445 39.4766C567.06 39.4766 566.753 39.3698 566.523 39.1562C566.294 38.9427 566.18 38.6719 566.18 38.3438ZM572.812 37V49H570.555V37H572.812ZM577.047 40.5469V49H574.789V40.5469H577.047ZM574.648 38.3438C574.648 38.0156 574.763 37.7448 574.992 37.5312C575.221 37.3177 575.529 37.2109 575.914 37.2109C576.294 37.2109 576.599 37.3177 576.828 37.5312C577.062 37.7448 577.18 38.0156 577.18 38.3438C577.18 38.6719 577.062 38.9427 576.828 39.1562C576.599 39.3698 576.294 39.4766 575.914 39.4766C575.529 39.4766 575.221 39.3698 574.992 39.1562C574.763 38.9427 574.648 38.6719 574.648 38.3438ZM583.047 40.5469V42.1406H578.125V40.5469H583.047ZM579.344 38.4609H581.594V46.4531C581.594 46.6979 581.625 46.8854 581.688 47.0156C581.755 47.1458 581.854 47.237 581.984 47.2891C582.115 47.3359 582.279 47.3594 582.477 47.3594C582.617 47.3594 582.742 47.3542 582.852 47.3438C582.966 47.3281 583.062 47.3125 583.141 47.2969L583.148 48.9531C582.956 49.0156 582.747 49.0651 582.523 49.1016C582.299 49.138 582.052 49.1562 581.781 49.1562C581.286 49.1562 580.854 49.0755 580.484 48.9141C580.12 48.7474 579.839 48.4818 579.641 48.1172C579.443 47.7526 579.344 47.2734 579.344 46.6797V38.4609ZM586.836 48.0469L589.078 40.5469H591.492L588.094 50.2734C588.021 50.487 587.922 50.7161 587.797 50.9609C587.677 51.2057 587.513 51.4375 587.305 51.6562C587.102 51.8802 586.844 52.0625 586.531 52.2031C586.224 52.3438 585.846 52.4141 585.398 52.4141C585.185 52.4141 585.01 52.401 584.875 52.375C584.74 52.349 584.578 52.3125 584.391 52.2656V50.6172C584.448 50.6172 584.508 50.6172 584.57 50.6172C584.633 50.6224 584.693 50.625 584.75 50.625C585.047 50.625 585.289 50.5911 585.477 50.5234C585.664 50.4557 585.815 50.3516 585.93 50.2109C586.044 50.0755 586.135 49.8984 586.203 49.6797L586.836 48.0469ZM585.898 40.5469L587.734 46.6719L588.055 49.0547L586.523 49.2188L583.484 40.5469H585.898Z" fill="#188038"/>
<path d="M213.469 44.0078H210.547L210.531 42.3984H212.984C213.417 42.3984 213.771 42.3438 214.047 42.2344C214.323 42.1198 214.529 41.9557 214.664 41.7422C214.805 41.5234 214.875 41.2578 214.875 40.9453C214.875 40.5911 214.807 40.3047 214.672 40.0859C214.542 39.8672 214.336 39.7083 214.055 39.6094C213.779 39.5104 213.422 39.4609 212.984 39.4609H211.359V49H209.016V37.625H212.984C213.646 37.625 214.237 37.6875 214.758 37.8125C215.284 37.9375 215.729 38.1276 216.094 38.3828C216.458 38.638 216.737 38.9609 216.93 39.3516C217.122 39.737 217.219 40.1953 217.219 40.7266C217.219 41.1953 217.112 41.6276 216.898 42.0234C216.69 42.4193 216.359 42.7422 215.906 42.9922C215.458 43.2422 214.872 43.3802 214.148 43.4062L213.469 44.0078ZM213.367 49H209.906L210.82 47.1719H213.367C213.779 47.1719 214.115 47.1068 214.375 46.9766C214.635 46.8411 214.828 46.6589 214.953 46.4297C215.078 46.2005 215.141 45.9375 215.141 45.6406C215.141 45.3073 215.083 45.0182 214.969 44.7734C214.859 44.5286 214.682 44.3411 214.438 44.2109C214.193 44.0755 213.87 44.0078 213.469 44.0078H211.211L211.227 42.3984H214.039L214.578 43.0312C215.271 43.0208 215.828 43.1432 216.25 43.3984C216.677 43.6484 216.987 43.974 217.18 44.375C217.378 44.776 217.477 45.2057 217.477 45.6641C217.477 46.3932 217.318 47.0078 217 47.5078C216.682 48.0026 216.216 48.375 215.602 48.625C214.992 48.875 214.247 49 213.367 49ZM222.984 49.1562C222.328 49.1562 221.74 49.0521 221.219 48.8438C220.698 48.6302 220.255 48.3359 219.891 47.9609C219.531 47.5859 219.255 47.151 219.062 46.6562C218.87 46.1562 218.773 45.625 218.773 45.0625V44.75C218.773 44.1094 218.865 43.5234 219.047 42.9922C219.229 42.4609 219.49 42 219.828 41.6094C220.172 41.2188 220.589 40.9193 221.078 40.7109C221.568 40.4974 222.12 40.3906 222.734 40.3906C223.333 40.3906 223.865 40.4896 224.328 40.6875C224.792 40.8854 225.18 41.1667 225.492 41.5312C225.81 41.8958 226.049 42.3333 226.211 42.8438C226.372 43.349 226.453 43.9115 226.453 44.5312V45.4688H219.734V43.9688H224.242V43.7969C224.242 43.4844 224.185 43.2057 224.07 42.9609C223.961 42.7109 223.794 42.513 223.57 42.3672C223.346 42.2214 223.06 42.1484 222.711 42.1484C222.414 42.1484 222.159 42.2135 221.945 42.3438C221.732 42.474 221.557 42.6562 221.422 42.8906C221.292 43.125 221.193 43.401 221.125 43.7188C221.062 44.0312 221.031 44.375 221.031 44.75V45.0625C221.031 45.401 221.078 45.7135 221.172 46C221.271 46.2865 221.409 46.5339 221.586 46.7422C221.768 46.9505 221.987 47.112 222.242 47.2266C222.503 47.3411 222.797 47.3984 223.125 47.3984C223.531 47.3984 223.909 47.3203 224.258 47.1641C224.612 47.0026 224.917 46.7604 225.172 46.4375L226.266 47.625C226.089 47.8802 225.846 48.125 225.539 48.3594C225.237 48.5938 224.872 48.7865 224.445 48.9375C224.018 49.0833 223.531 49.1562 222.984 49.1562ZM231.875 40.5469V42.1406H226.953V40.5469H231.875ZM228.172 38.4609H230.422V46.4531C230.422 46.6979 230.453 46.8854 230.516 47.0156C230.583 47.1458 230.682 47.237 230.812 47.2891C230.943 47.3359 231.107 47.3594 231.305 47.3594C231.445 47.3594 231.57 47.3542 231.68 47.3438C231.794 47.3281 231.891 47.3125 231.969 47.2969L231.977 48.9531C231.784 49.0156 231.576 49.0651 231.352 49.1016C231.128 49.138 230.88 49.1562 230.609 49.1562C230.115 49.1562 229.682 49.0755 229.312 48.9141C228.948 48.7474 228.667 48.4818 228.469 48.1172C228.271 47.7526 228.172 47.2734 228.172 46.6797V38.4609ZM237.719 47.0938V43.3281C237.719 43.0573 237.674 42.8255 237.586 42.6328C237.497 42.4349 237.359 42.2812 237.172 42.1719C236.99 42.0625 236.753 42.0078 236.461 42.0078C236.211 42.0078 235.995 42.0521 235.812 42.1406C235.63 42.224 235.49 42.3464 235.391 42.5078C235.292 42.6641 235.242 42.849 235.242 43.0625H232.992C232.992 42.7031 233.076 42.362 233.242 42.0391C233.409 41.7161 233.651 41.4323 233.969 41.1875C234.286 40.9375 234.664 40.7422 235.102 40.6016C235.544 40.4609 236.039 40.3906 236.586 40.3906C237.242 40.3906 237.826 40.5 238.336 40.7188C238.846 40.9375 239.247 41.2656 239.539 41.7031C239.836 42.1406 239.984 42.6875 239.984 43.3438V46.9609C239.984 47.4245 240.013 47.8047 240.07 48.1016C240.128 48.3932 240.211 48.6484 240.32 48.8672V49H238.047C237.938 48.7708 237.854 48.4844 237.797 48.1406C237.745 47.7917 237.719 47.4427 237.719 47.0938ZM238.016 43.8516L238.031 45.125H236.773C236.477 45.125 236.219 45.1589 236 45.2266C235.781 45.2943 235.602 45.3906 235.461 45.5156C235.32 45.6354 235.216 45.776 235.148 45.9375C235.086 46.099 235.055 46.276 235.055 46.4688C235.055 46.6615 235.099 46.8359 235.188 46.9922C235.276 47.1432 235.404 47.263 235.57 47.3516C235.737 47.4349 235.932 47.4766 236.156 47.4766C236.495 47.4766 236.789 47.4089 237.039 47.2734C237.289 47.138 237.482 46.9714 237.617 46.7734C237.758 46.5755 237.831 46.388 237.836 46.2109L238.43 47.1641C238.346 47.3776 238.232 47.599 238.086 47.8281C237.945 48.0573 237.766 48.2734 237.547 48.4766C237.328 48.6745 237.065 48.8385 236.758 48.9688C236.451 49.0938 236.086 49.1562 235.664 49.1562C235.128 49.1562 234.641 49.0495 234.203 48.8359C233.771 48.6172 233.427 48.3177 233.172 47.9375C232.922 47.5521 232.797 47.1146 232.797 46.625C232.797 46.1823 232.88 45.7891 233.047 45.4453C233.214 45.1016 233.458 44.8125 233.781 44.5781C234.109 44.3385 234.518 44.1589 235.008 44.0391C235.497 43.9141 236.065 43.8516 236.711 43.8516H238.016ZM245.844 37.625H250.086C250.956 37.625 251.703 37.7552 252.328 38.0156C252.958 38.276 253.443 38.6615 253.781 39.1719C254.12 39.6823 254.289 40.3099 254.289 41.0547C254.289 41.6641 254.185 42.1875 253.977 42.625C253.773 43.0573 253.484 43.4193 253.109 43.7109C252.74 43.9974 252.305 44.2266 251.805 44.3984L251.062 44.7891H247.375L247.359 42.9609H250.102C250.513 42.9609 250.854 42.888 251.125 42.7422C251.396 42.5964 251.599 42.3932 251.734 42.1328C251.875 41.8724 251.945 41.5703 251.945 41.2266C251.945 40.862 251.878 40.5469 251.742 40.2812C251.607 40.0156 251.401 39.8125 251.125 39.6719C250.849 39.5312 250.503 39.4609 250.086 39.4609H248.188V49H245.844V37.625ZM252.203 49L249.609 43.9297L252.086 43.9141L254.711 48.8906V49H252.203ZM259.844 49.1562C259.188 49.1562 258.599 49.0521 258.078 48.8438C257.557 48.6302 257.115 48.3359 256.75 47.9609C256.391 47.5859 256.115 47.151 255.922 46.6562C255.729 46.1562 255.633 45.625 255.633 45.0625V44.75C255.633 44.1094 255.724 43.5234 255.906 42.9922C256.089 42.4609 256.349 42 256.688 41.6094C257.031 41.2188 257.448 40.9193 257.938 40.7109C258.427 40.4974 258.979 40.3906 259.594 40.3906C260.193 40.3906 260.724 40.4896 261.188 40.6875C261.651 40.8854 262.039 41.1667 262.352 41.5312C262.669 41.8958 262.909 42.3333 263.07 42.8438C263.232 43.349 263.312 43.9115 263.312 44.5312V45.4688H256.594V43.9688H261.102V43.7969C261.102 43.4844 261.044 43.2057 260.93 42.9609C260.82 42.7109 260.654 42.513 260.43 42.3672C260.206 42.2214 259.919 42.1484 259.57 42.1484C259.273 42.1484 259.018 42.2135 258.805 42.3438C258.591 42.474 258.417 42.6562 258.281 42.8906C258.151 43.125 258.052 43.401 257.984 43.7188C257.922 44.0312 257.891 44.375 257.891 44.75V45.0625C257.891 45.401 257.938 45.7135 258.031 46C258.13 46.2865 258.268 46.5339 258.445 46.7422C258.628 46.9505 258.846 47.112 259.102 47.2266C259.362 47.3411 259.656 47.3984 259.984 47.3984C260.391 47.3984 260.768 47.3203 261.117 47.1641C261.471 47.0026 261.776 46.7604 262.031 46.4375L263.125 47.625C262.948 47.8802 262.706 48.125 262.398 48.3594C262.096 48.5938 261.732 48.7865 261.305 48.9375C260.878 49.0833 260.391 49.1562 259.844 49.1562ZM266.969 37V49H264.711V37H266.969ZM272.719 49.1562C272.062 49.1562 271.474 49.0521 270.953 48.8438C270.432 48.6302 269.99 48.3359 269.625 47.9609C269.266 47.5859 268.99 47.151 268.797 46.6562C268.604 46.1562 268.508 45.625 268.508 45.0625V44.75C268.508 44.1094 268.599 43.5234 268.781 42.9922C268.964 42.4609 269.224 42 269.562 41.6094C269.906 41.2188 270.323 40.9193 270.812 40.7109C271.302 40.4974 271.854 40.3906 272.469 40.3906C273.068 40.3906 273.599 40.4896 274.062 40.6875C274.526 40.8854 274.914 41.1667 275.227 41.5312C275.544 41.8958 275.784 42.3333 275.945 42.8438C276.107 43.349 276.188 43.9115 276.188 44.5312V45.4688H269.469V43.9688H273.977V43.7969C273.977 43.4844 273.919 43.2057 273.805 42.9609C273.695 42.7109 273.529 42.513 273.305 42.3672C273.081 42.2214 272.794 42.1484 272.445 42.1484C272.148 42.1484 271.893 42.2135 271.68 42.3438C271.466 42.474 271.292 42.6562 271.156 42.8906C271.026 43.125 270.927 43.401 270.859 43.7188C270.797 44.0312 270.766 44.375 270.766 44.75V45.0625C270.766 45.401 270.812 45.7135 270.906 46C271.005 46.2865 271.143 46.5339 271.32 46.7422C271.503 46.9505 271.721 47.112 271.977 47.2266C272.237 47.3411 272.531 47.3984 272.859 47.3984C273.266 47.3984 273.643 47.3203 273.992 47.1641C274.346 47.0026 274.651 46.7604 274.906 46.4375L276 47.625C275.823 47.8802 275.581 48.125 275.273 48.3594C274.971 48.5938 274.607 48.7865 274.18 48.9375C273.753 49.0833 273.266 49.1562 272.719 49.1562ZM282.031 47.0938V43.3281C282.031 43.0573 281.987 42.8255 281.898 42.6328C281.81 42.4349 281.672 42.2812 281.484 42.1719C281.302 42.0625 281.065 42.0078 280.773 42.0078C280.523 42.0078 280.307 42.0521 280.125 42.1406C279.943 42.224 279.802 42.3464 279.703 42.5078C279.604 42.6641 279.555 42.849 279.555 43.0625H277.305C277.305 42.7031 277.388 42.362 277.555 42.0391C277.721 41.7161 277.964 41.4323 278.281 41.1875C278.599 40.9375 278.977 40.7422 279.414 40.6016C279.857 40.4609 280.352 40.3906 280.898 40.3906C281.555 40.3906 282.138 40.5 282.648 40.7188C283.159 40.9375 283.56 41.2656 283.852 41.7031C284.148 42.1406 284.297 42.6875 284.297 43.3438V46.9609C284.297 47.4245 284.326 47.8047 284.383 48.1016C284.44 48.3932 284.523 48.6484 284.633 48.8672V49H282.359C282.25 48.7708 282.167 48.4844 282.109 48.1406C282.057 47.7917 282.031 47.4427 282.031 47.0938ZM282.328 43.8516L282.344 45.125H281.086C280.789 45.125 280.531 45.1589 280.312 45.2266C280.094 45.2943 279.914 45.3906 279.773 45.5156C279.633 45.6354 279.529 45.776 279.461 45.9375C279.398 46.099 279.367 46.276 279.367 46.4688C279.367 46.6615 279.411 46.8359 279.5 46.9922C279.589 47.1432 279.716 47.263 279.883 47.3516C280.049 47.4349 280.245 47.4766 280.469 47.4766C280.807 47.4766 281.102 47.4089 281.352 47.2734C281.602 47.138 281.794 46.9714 281.93 46.7734C282.07 46.5755 282.143 46.388 282.148 46.2109L282.742 47.1641C282.659 47.3776 282.544 47.599 282.398 47.8281C282.258 48.0573 282.078 48.2734 281.859 48.4766C281.641 48.6745 281.378 48.8385 281.07 48.9688C280.763 49.0938 280.398 49.1562 279.977 49.1562C279.44 49.1562 278.953 49.0495 278.516 48.8359C278.083 48.6172 277.74 48.3177 277.484 47.9375C277.234 47.5521 277.109 47.1146 277.109 46.625C277.109 46.1823 277.193 45.7891 277.359 45.4453C277.526 45.1016 277.771 44.8125 278.094 44.5781C278.422 44.3385 278.831 44.1589 279.32 44.0391C279.81 43.9141 280.378 43.8516 281.023 43.8516H282.328ZM290.602 46.6641C290.602 46.5026 290.555 46.3568 290.461 46.2266C290.367 46.0964 290.193 45.9766 289.938 45.8672C289.688 45.7526 289.326 45.6484 288.852 45.5547C288.424 45.4609 288.026 45.3438 287.656 45.2031C287.292 45.0573 286.974 44.8828 286.703 44.6797C286.438 44.4766 286.229 44.237 286.078 43.9609C285.927 43.6797 285.852 43.3594 285.852 43C285.852 42.6458 285.927 42.3125 286.078 42C286.234 41.6875 286.456 41.4115 286.742 41.1719C287.034 40.9271 287.388 40.737 287.805 40.6016C288.227 40.4609 288.701 40.3906 289.227 40.3906C289.961 40.3906 290.591 40.5078 291.117 40.7422C291.648 40.9766 292.055 41.2995 292.336 41.7109C292.622 42.1172 292.766 42.5807 292.766 43.1016H290.516C290.516 42.8828 290.469 42.6875 290.375 42.5156C290.286 42.3385 290.146 42.2005 289.953 42.1016C289.766 41.9974 289.521 41.9453 289.219 41.9453C288.969 41.9453 288.753 41.9896 288.57 42.0781C288.388 42.1615 288.247 42.276 288.148 42.4219C288.055 42.5625 288.008 42.7188 288.008 42.8906C288.008 43.0208 288.034 43.138 288.086 43.2422C288.143 43.3411 288.234 43.4323 288.359 43.5156C288.484 43.599 288.646 43.6771 288.844 43.75C289.047 43.8177 289.297 43.8802 289.594 43.9375C290.203 44.0625 290.747 44.2266 291.227 44.4297C291.706 44.6276 292.086 44.8984 292.367 45.2422C292.648 45.5807 292.789 46.026 292.789 46.5781C292.789 46.9531 292.706 47.2969 292.539 47.6094C292.372 47.9219 292.133 48.1953 291.82 48.4297C291.508 48.6589 291.133 48.8385 290.695 48.9688C290.263 49.0938 289.776 49.1562 289.234 49.1562C288.448 49.1562 287.781 49.0156 287.234 48.7344C286.693 48.4531 286.281 48.0964 286 47.6641C285.724 47.2266 285.586 46.7786 285.586 46.3203H287.719C287.729 46.6276 287.807 46.875 287.953 47.0625C288.104 47.25 288.294 47.3854 288.523 47.4688C288.758 47.5521 289.01 47.5938 289.281 47.5938C289.573 47.5938 289.815 47.5547 290.008 47.4766C290.201 47.3932 290.346 47.2839 290.445 47.1484C290.549 47.0078 290.602 46.8464 290.602 46.6641ZM298.141 49.1562C297.484 49.1562 296.896 49.0521 296.375 48.8438C295.854 48.6302 295.411 48.3359 295.047 47.9609C294.688 47.5859 294.411 47.151 294.219 46.6562C294.026 46.1562 293.93 45.625 293.93 45.0625V44.75C293.93 44.1094 294.021 43.5234 294.203 42.9922C294.385 42.4609 294.646 42 294.984 41.6094C295.328 41.2188 295.745 40.9193 296.234 40.7109C296.724 40.4974 297.276 40.3906 297.891 40.3906C298.49 40.3906 299.021 40.4896 299.484 40.6875C299.948 40.8854 300.336 41.1667 300.648 41.5312C300.966 41.8958 301.206 42.3333 301.367 42.8438C301.529 43.349 301.609 43.9115 301.609 44.5312V45.4688H294.891V43.9688H299.398V43.7969C299.398 43.4844 299.341 43.2057 299.227 42.9609C299.117 42.7109 298.951 42.513 298.727 42.3672C298.503 42.2214 298.216 42.1484 297.867 42.1484C297.57 42.1484 297.315 42.2135 297.102 42.3438C296.888 42.474 296.714 42.6562 296.578 42.8906C296.448 43.125 296.349 43.401 296.281 43.7188C296.219 44.0312 296.188 44.375 296.188 44.75V45.0625C296.188 45.401 296.234 45.7135 296.328 46C296.427 46.2865 296.565 46.5339 296.742 46.7422C296.924 46.9505 297.143 47.112 297.398 47.2266C297.659 47.3411 297.953 47.3984 298.281 47.3984C298.688 47.3984 299.065 47.3203 299.414 47.1641C299.768 47.0026 300.073 46.7604 300.328 46.4375L301.422 47.625C301.245 47.8802 301.003 48.125 300.695 48.3594C300.393 48.5938 300.029 48.7865 299.602 48.9375C299.174 49.0833 298.688 49.1562 298.141 49.1562ZM307.461 46.6641C307.461 46.5026 307.414 46.3568 307.32 46.2266C307.227 46.0964 307.052 45.9766 306.797 45.8672C306.547 45.7526 306.185 45.6484 305.711 45.5547C305.284 45.4609 304.885 45.3438 304.516 45.2031C304.151 45.0573 303.833 44.8828 303.562 44.6797C303.297 44.4766 303.089 44.237 302.938 43.9609C302.786 43.6797 302.711 43.3594 302.711 43C302.711 42.6458 302.786 42.3125 302.938 42C303.094 41.6875 303.315 41.4115 303.602 41.1719C303.893 40.9271 304.247 40.737 304.664 40.6016C305.086 40.4609 305.56 40.3906 306.086 40.3906C306.82 40.3906 307.451 40.5078 307.977 40.7422C308.508 40.9766 308.914 41.2995 309.195 41.7109C309.482 42.1172 309.625 42.5807 309.625 43.1016H307.375C307.375 42.8828 307.328 42.6875 307.234 42.5156C307.146 42.3385 307.005 42.2005 306.812 42.1016C306.625 41.9974 306.38 41.9453 306.078 41.9453C305.828 41.9453 305.612 41.9896 305.43 42.0781C305.247 42.1615 305.107 42.276 305.008 42.4219C304.914 42.5625 304.867 42.7188 304.867 42.8906C304.867 43.0208 304.893 43.138 304.945 43.2422C305.003 43.3411 305.094 43.4323 305.219 43.5156C305.344 43.599 305.505 43.6771 305.703 43.75C305.906 43.8177 306.156 43.8802 306.453 43.9375C307.062 44.0625 307.607 44.2266 308.086 44.4297C308.565 44.6276 308.945 44.8984 309.227 45.2422C309.508 45.5807 309.648 46.026 309.648 46.5781C309.648 46.9531 309.565 47.2969 309.398 47.6094C309.232 47.9219 308.992 48.1953 308.68 48.4297C308.367 48.6589 307.992 48.8385 307.555 48.9688C307.122 49.0938 306.635 49.1562 306.094 49.1562C305.307 49.1562 304.641 49.0156 304.094 48.7344C303.552 48.4531 303.141 48.0964 302.859 47.6641C302.583 47.2266 302.445 46.7786 302.445 46.3203H304.578C304.589 46.6276 304.667 46.875 304.812 47.0625C304.964 47.25 305.154 47.3854 305.383 47.4688C305.617 47.5521 305.87 47.5938 306.141 47.5938C306.432 47.5938 306.674 47.5547 306.867 47.4766C307.06 47.3932 307.206 47.2839 307.305 47.1484C307.409 47.0078 307.461 46.8464 307.461 46.6641Z" fill="#1769E0"/>
<path d="M28.5078 49H26.0312L26.0469 47.1719H28.5078C29.1224 47.1719 29.6406 47.0339 30.0625 46.7578C30.4844 46.4766 30.8021 46.0677 31.0156 45.5312C31.2344 44.9948 31.3438 44.3464 31.3438 43.5859V43.0312C31.3438 42.4479 31.2812 41.9349 31.1562 41.4922C31.0365 41.0495 30.8568 40.6771 30.6172 40.375C30.3776 40.0729 30.0833 39.8464 29.7344 39.6953C29.3854 39.5391 28.9844 39.4609 28.5312 39.4609H25.9844V37.625H28.5312C29.2917 37.625 29.987 37.7552 30.6172 38.0156C31.2526 38.2708 31.8021 38.638 32.2656 39.1172C32.7292 39.5964 33.0859 40.1693 33.3359 40.8359C33.5911 41.4974 33.7188 42.2344 33.7188 43.0469V43.5859C33.7188 44.3932 33.5911 45.1302 33.3359 45.7969C33.0859 46.4635 32.7292 47.0365 32.2656 47.5156C31.8073 47.9896 31.2578 48.3568 30.6172 48.6172C29.9818 48.8724 29.2786 49 28.5078 49ZM27.3594 37.625V49H25.0156V37.625H27.3594ZM39.1719 49.1562C38.5156 49.1562 37.9271 49.0521 37.4062 48.8438C36.8854 48.6302 36.4427 48.3359 36.0781 47.9609C35.7188 47.5859 35.4427 47.151 35.25 46.6562C35.0573 46.1562 34.9609 45.625 34.9609 45.0625V44.75C34.9609 44.1094 35.0521 43.5234 35.2344 42.9922C35.4167 42.4609 35.6771 42 36.0156 41.6094C36.3594 41.2188 36.776 40.9193 37.2656 40.7109C37.7552 40.4974 38.3073 40.3906 38.9219 40.3906C39.5208 40.3906 40.0521 40.4896 40.5156 40.6875C40.9792 40.8854 41.3672 41.1667 41.6797 41.5312C41.9974 41.8958 42.237 42.3333 42.3984 42.8438C42.5599 43.349 42.6406 43.9115 42.6406 44.5312V45.4688H35.9219V43.9688H40.4297V43.7969C40.4297 43.4844 40.3724 43.2057 40.2578 42.9609C40.1484 42.7109 39.9818 42.513 39.7578 42.3672C39.5339 42.2214 39.2474 42.1484 38.8984 42.1484C38.6016 42.1484 38.3464 42.2135 38.1328 42.3438C37.9193 42.474 37.7448 42.6562 37.6094 42.8906C37.4792 43.125 37.3802 43.401 37.3125 43.7188C37.25 44.0312 37.2188 44.375 37.2188 44.75V45.0625C37.2188 45.401 37.2656 45.7135 37.3594 46C37.4583 46.2865 37.5964 46.5339 37.7734 46.7422C37.9557 46.9505 38.1745 47.112 38.4297 47.2266C38.6901 47.3411 38.9844 47.3984 39.3125 47.3984C39.7188 47.3984 40.0964 47.3203 40.4453 47.1641C40.7995 47.0026 41.1042 46.7604 41.3594 46.4375L42.4531 47.625C42.276 47.8802 42.0339 48.125 41.7266 48.3594C41.4245 48.5938 41.0599 48.7865 40.6328 48.9375C40.2057 49.0833 39.7188 49.1562 39.1719 49.1562ZM46.6875 47.3594L48.5625 40.5469H50.9141L48.0625 49H46.6406L46.6875 47.3594ZM45.3984 40.5469L47.2812 47.3672L47.3203 49H45.8906L43.0391 40.5469H45.3984ZM55.7031 49.1562C55.0469 49.1562 54.4583 49.0521 53.9375 48.8438C53.4167 48.6302 52.974 48.3359 52.6094 47.9609C52.25 47.5859 51.974 47.151 51.7812 46.6562C51.5885 46.1562 51.4922 45.625 51.4922 45.0625V44.75C51.4922 44.1094 51.5833 43.5234 51.7656 42.9922C51.9479 42.4609 52.2083 42 52.5469 41.6094C52.8906 41.2188 53.3073 40.9193 53.7969 40.7109C54.2865 40.4974 54.8385 40.3906 55.4531 40.3906C56.0521 40.3906 56.5833 40.4896 57.0469 40.6875C57.5104 40.8854 57.8984 41.1667 58.2109 41.5312C58.5286 41.8958 58.7682 42.3333 58.9297 42.8438C59.0911 43.349 59.1719 43.9115 59.1719 44.5312V45.4688H52.4531V43.9688H56.9609V43.7969C56.9609 43.4844 56.9036 43.2057 56.7891 42.9609C56.6797 42.7109 56.513 42.513 56.2891 42.3672C56.0651 42.2214 55.7786 42.1484 55.4297 42.1484C55.1328 42.1484 54.8776 42.2135 54.6641 42.3438C54.4505 42.474 54.276 42.6562 54.1406 42.8906C54.0104 43.125 53.9115 43.401 53.8438 43.7188C53.7812 44.0312 53.75 44.375 53.75 44.75V45.0625C53.75 45.401 53.7969 45.7135 53.8906 46C53.9896 46.2865 54.1276 46.5339 54.3047 46.7422C54.487 46.9505 54.7057 47.112 54.9609 47.2266C55.2214 47.3411 55.5156 47.3984 55.8438 47.3984C56.25 47.3984 56.6276 47.3203 56.9766 47.1641C57.3307 47.0026 57.6354 46.7604 57.8906 46.4375L58.9844 47.625C58.8073 47.8802 58.5651 48.125 58.2578 48.3594C57.9557 48.5938 57.5911 48.7865 57.1641 48.9375C56.737 49.0833 56.25 49.1562 55.7031 49.1562ZM62.8281 37V49H60.5703V37H62.8281ZM64.3281 44.8594V44.6953C64.3281 44.0755 64.4167 43.5052 64.5938 42.9844C64.7708 42.4583 65.0286 42.0026 65.3672 41.6172C65.7057 41.2318 66.1224 40.9323 66.6172 40.7188C67.112 40.5 67.6797 40.3906 68.3203 40.3906C68.9609 40.3906 69.5312 40.5 70.0312 40.7188C70.5312 40.9323 70.9505 41.2318 71.2891 41.6172C71.6328 42.0026 71.8932 42.4583 72.0703 42.9844C72.2474 43.5052 72.3359 44.0755 72.3359 44.6953V44.8594C72.3359 45.474 72.2474 46.0443 72.0703 46.5703C71.8932 47.0911 71.6328 47.5469 71.2891 47.9375C70.9505 48.3229 70.5339 48.6224 70.0391 48.8359C69.5443 49.0495 68.9766 49.1562 68.3359 49.1562C67.6953 49.1562 67.125 49.0495 66.625 48.8359C66.1302 48.6224 65.7109 48.3229 65.3672 47.9375C65.0286 47.5469 64.7708 47.0911 64.5938 46.5703C64.4167 46.0443 64.3281 45.474 64.3281 44.8594ZM66.5781 44.6953V44.8594C66.5781 45.2135 66.6094 45.5443 66.6719 45.8516C66.7344 46.1589 66.8333 46.4297 66.9688 46.6641C67.1094 46.8932 67.2917 47.0729 67.5156 47.2031C67.7396 47.3333 68.013 47.3984 68.3359 47.3984C68.6484 47.3984 68.9167 47.3333 69.1406 47.2031C69.3646 47.0729 69.5443 46.8932 69.6797 46.6641C69.8151 46.4297 69.9141 46.1589 69.9766 45.8516C70.0443 45.5443 70.0781 45.2135 70.0781 44.8594V44.6953C70.0781 44.3516 70.0443 44.0286 69.9766 43.7266C69.9141 43.4193 69.8125 43.1484 69.6719 42.9141C69.5365 42.6745 69.3568 42.487 69.1328 42.3516C68.9089 42.2161 68.638 42.1484 68.3203 42.1484C68.0026 42.1484 67.7318 42.2161 67.5078 42.3516C67.2891 42.487 67.1094 42.6745 66.9688 42.9141C66.8333 43.1484 66.7344 43.4193 66.6719 43.7266C66.6094 44.0286 66.5781 44.3516 66.5781 44.6953ZM75.9688 42.1719V52.25H73.7188V40.5469H75.8047L75.9688 42.1719ZM81.3203 44.6797V44.8438C81.3203 45.4583 81.2474 46.0286 81.1016 46.5547C80.9609 47.0807 80.7526 47.5391 80.4766 47.9297C80.2005 48.3151 79.8568 48.6172 79.4453 48.8359C79.0391 49.0495 78.5703 49.1562 78.0391 49.1562C77.5234 49.1562 77.0755 49.0521 76.6953 48.8438C76.3151 48.6354 75.9948 48.3438 75.7344 47.9688C75.4792 47.5885 75.2734 47.1484 75.1172 46.6484C74.9609 46.1484 74.8411 45.612 74.7578 45.0391V44.6094C74.8411 43.9948 74.9609 43.4323 75.1172 42.9219C75.2734 42.4062 75.4792 41.9609 75.7344 41.5859C75.9948 41.2057 76.3125 40.9115 76.6875 40.7031C77.0677 40.4948 77.513 40.3906 78.0234 40.3906C78.5599 40.3906 79.0312 40.4922 79.4375 40.6953C79.849 40.8984 80.1927 41.1901 80.4688 41.5703C80.75 41.9505 80.9609 42.4036 81.1016 42.9297C81.2474 43.4557 81.3203 44.0391 81.3203 44.6797ZM79.0625 44.8438V44.6797C79.0625 44.3203 79.0312 43.9896 78.9688 43.6875C78.9115 43.3802 78.8177 43.112 78.6875 42.8828C78.5625 42.6536 78.3958 42.4766 78.1875 42.3516C77.9844 42.2214 77.737 42.1562 77.4453 42.1562C77.138 42.1562 76.875 42.2057 76.6562 42.3047C76.4427 42.4036 76.2682 42.5469 76.1328 42.7344C75.9974 42.9219 75.8958 43.1458 75.8281 43.4062C75.7604 43.6667 75.7188 43.9609 75.7031 44.2891V45.375C75.7292 45.7604 75.8021 46.1068 75.9219 46.4141C76.0417 46.7161 76.2266 46.9557 76.4766 47.1328C76.7266 47.3099 77.0547 47.3984 77.4609 47.3984C77.7578 47.3984 78.0078 47.3333 78.2109 47.2031C78.4141 47.0677 78.5781 46.8828 78.7031 46.6484C78.8333 46.4141 78.9245 46.1432 78.9766 45.8359C79.0339 45.5286 79.0625 45.1979 79.0625 44.8438ZM86.6094 49.1562C85.9531 49.1562 85.3646 49.0521 84.8438 48.8438C84.3229 48.6302 83.8802 48.3359 83.5156 47.9609C83.1562 47.5859 82.8802 47.151 82.6875 46.6562C82.4948 46.1562 82.3984 45.625 82.3984 45.0625V44.75C82.3984 44.1094 82.4896 43.5234 82.6719 42.9922C82.8542 42.4609 83.1146 42 83.4531 41.6094C83.7969 41.2188 84.2135 40.9193 84.7031 40.7109C85.1927 40.4974 85.7448 40.3906 86.3594 40.3906C86.9583 40.3906 87.4896 40.4896 87.9531 40.6875C88.4167 40.8854 88.8047 41.1667 89.1172 41.5312C89.4349 41.8958 89.6745 42.3333 89.8359 42.8438C89.9974 43.349 90.0781 43.9115 90.0781 44.5312V45.4688H83.3594V43.9688H87.8672V43.7969C87.8672 43.4844 87.8099 43.2057 87.6953 42.9609C87.5859 42.7109 87.4193 42.513 87.1953 42.3672C86.9714 42.2214 86.6849 42.1484 86.3359 42.1484C86.0391 42.1484 85.7839 42.2135 85.5703 42.3438C85.3568 42.474 85.1823 42.6562 85.0469 42.8906C84.9167 43.125 84.8177 43.401 84.75 43.7188C84.6875 44.0312 84.6562 44.375 84.6562 44.75V45.0625C84.6562 45.401 84.7031 45.7135 84.7969 46C84.8958 46.2865 85.0339 46.5339 85.2109 46.7422C85.3932 46.9505 85.612 47.112 85.8672 47.2266C86.1276 47.3411 86.4219 47.3984 86.75 47.3984C87.1562 47.3984 87.5339 47.3203 87.8828 47.1641C88.237 47.0026 88.5417 46.7604 88.7969 46.4375L89.8906 47.625C89.7135 47.8802 89.4714 48.125 89.1641 48.3594C88.862 48.5938 88.4974 48.7865 88.0703 48.9375C87.6432 49.0833 87.1562 49.1562 86.6094 49.1562ZM93.6094 42.3906V49H91.3594V40.5469H93.4766L93.6094 42.3906ZM96.1562 40.4922L96.1172 42.5781C96.0078 42.5625 95.875 42.5495 95.7188 42.5391C95.5677 42.5234 95.4297 42.5156 95.3047 42.5156C94.987 42.5156 94.7109 42.5573 94.4766 42.6406C94.2474 42.7188 94.0547 42.8359 93.8984 42.9922C93.7474 43.1484 93.6328 43.3385 93.5547 43.5625C93.4818 43.7865 93.4401 44.0417 93.4297 44.3281L92.9766 44.1875C92.9766 43.6406 93.0312 43.138 93.1406 42.6797C93.25 42.2161 93.4089 41.8125 93.6172 41.4688C93.8307 41.125 94.0911 40.8594 94.3984 40.6719C94.7057 40.4844 95.0573 40.3906 95.4531 40.3906C95.5781 40.3906 95.7057 40.401 95.8359 40.4219C95.9661 40.4375 96.0729 40.4609 96.1562 40.4922ZM105.773 44.9453H102.875V43.1172H105.773C106.221 43.1172 106.586 43.0443 106.867 42.8984C107.148 42.7474 107.354 42.5391 107.484 42.2734C107.615 42.0078 107.68 41.7083 107.68 41.375C107.68 41.0365 107.615 40.7214 107.484 40.4297C107.354 40.138 107.148 39.9036 106.867 39.7266C106.586 39.5495 106.221 39.4609 105.773 39.4609H103.688V49H101.344V37.625H105.773C106.664 37.625 107.427 37.7865 108.062 38.1094C108.703 38.4271 109.193 38.8672 109.531 39.4297C109.87 39.9922 110.039 40.6354 110.039 41.3594C110.039 42.0938 109.87 42.7292 109.531 43.2656C109.193 43.8021 108.703 44.2161 108.062 44.5078C107.427 44.7995 106.664 44.9453 105.773 44.9453ZM113.766 42.3906V49H111.516V40.5469H113.633L113.766 42.3906ZM116.312 40.4922L116.273 42.5781C116.164 42.5625 116.031 42.5495 115.875 42.5391C115.724 42.5234 115.586 42.5156 115.461 42.5156C115.143 42.5156 114.867 42.5573 114.633 42.6406C114.404 42.7188 114.211 42.8359 114.055 42.9922C113.904 43.1484 113.789 43.3385 113.711 43.5625C113.638 43.7865 113.596 44.0417 113.586 44.3281L113.133 44.1875C113.133 43.6406 113.188 43.138 113.297 42.6797C113.406 42.2161 113.565 41.8125 113.773 41.4688C113.987 41.125 114.247 40.8594 114.555 40.6719C114.862 40.4844 115.214 40.3906 115.609 40.3906C115.734 40.3906 115.862 40.401 115.992 40.4219C116.122 40.4375 116.229 40.4609 116.312 40.4922ZM121.109 49.1562C120.453 49.1562 119.865 49.0521 119.344 48.8438C118.823 48.6302 118.38 48.3359 118.016 47.9609C117.656 47.5859 117.38 47.151 117.188 46.6562C116.995 46.1562 116.898 45.625 116.898 45.0625V44.75C116.898 44.1094 116.99 43.5234 117.172 42.9922C117.354 42.4609 117.615 42 117.953 41.6094C118.297 41.2188 118.714 40.9193 119.203 40.7109C119.693 40.4974 120.245 40.3906 120.859 40.3906C121.458 40.3906 121.99 40.4896 122.453 40.6875C122.917 40.8854 123.305 41.1667 123.617 41.5312C123.935 41.8958 124.174 42.3333 124.336 42.8438C124.497 43.349 124.578 43.9115 124.578 44.5312V45.4688H117.859V43.9688H122.367V43.7969C122.367 43.4844 122.31 43.2057 122.195 42.9609C122.086 42.7109 121.919 42.513 121.695 42.3672C121.471 42.2214 121.185 42.1484 120.836 42.1484C120.539 42.1484 120.284 42.2135 120.07 42.3438C119.857 42.474 119.682 42.6562 119.547 42.8906C119.417 43.125 119.318 43.401 119.25 43.7188C119.188 44.0312 119.156 44.375 119.156 44.75V45.0625C119.156 45.401 119.203 45.7135 119.297 46C119.396 46.2865 119.534 46.5339 119.711 46.7422C119.893 46.9505 120.112 47.112 120.367 47.2266C120.628 47.3411 120.922 47.3984 121.25 47.3984C121.656 47.3984 122.034 47.3203 122.383 47.1641C122.737 47.0026 123.042 46.7604 123.297 46.4375L124.391 47.625C124.214 47.8802 123.971 48.125 123.664 48.3594C123.362 48.5938 122.997 48.7865 122.57 48.9375C122.143 49.0833 121.656 49.1562 121.109 49.1562ZM128.625 47.3594L130.5 40.5469H132.852L130 49H128.578L128.625 47.3594ZM127.336 40.5469L129.219 47.3672L129.258 49H127.828L124.977 40.5469H127.336ZM136.234 40.5469V49H133.977V40.5469H136.234ZM133.836 38.3438C133.836 38.0156 133.951 37.7448 134.18 37.5312C134.409 37.3177 134.716 37.2109 135.102 37.2109C135.482 37.2109 135.786 37.3177 136.016 37.5312C136.25 37.7448 136.367 38.0156 136.367 38.3438C136.367 38.6719 136.25 38.9427 136.016 39.1562C135.786 39.3698 135.482 39.4766 135.102 39.4766C134.716 39.4766 134.409 39.3698 134.18 39.1562C133.951 38.9427 133.836 38.6719 133.836 38.3438ZM141.984 49.1562C141.328 49.1562 140.74 49.0521 140.219 48.8438C139.698 48.6302 139.255 48.3359 138.891 47.9609C138.531 47.5859 138.255 47.151 138.062 46.6562C137.87 46.1562 137.773 45.625 137.773 45.0625V44.75C137.773 44.1094 137.865 43.5234 138.047 42.9922C138.229 42.4609 138.49 42 138.828 41.6094C139.172 41.2188 139.589 40.9193 140.078 40.7109C140.568 40.4974 141.12 40.3906 141.734 40.3906C142.333 40.3906 142.865 40.4896 143.328 40.6875C143.792 40.8854 144.18 41.1667 144.492 41.5312C144.81 41.8958 145.049 42.3333 145.211 42.8438C145.372 43.349 145.453 43.9115 145.453 44.5312V45.4688H138.734V43.9688H143.242V43.7969C143.242 43.4844 143.185 43.2057 143.07 42.9609C142.961 42.7109 142.794 42.513 142.57 42.3672C142.346 42.2214 142.06 42.1484 141.711 42.1484C141.414 42.1484 141.159 42.2135 140.945 42.3438C140.732 42.474 140.557 42.6562 140.422 42.8906C140.292 43.125 140.193 43.401 140.125 43.7188C140.062 44.0312 140.031 44.375 140.031 44.75V45.0625C140.031 45.401 140.078 45.7135 140.172 46C140.271 46.2865 140.409 46.5339 140.586 46.7422C140.768 46.9505 140.987 47.112 141.242 47.2266C141.503 47.3411 141.797 47.3984 142.125 47.3984C142.531 47.3984 142.909 47.3203 143.258 47.1641C143.612 47.0026 143.917 46.7604 144.172 46.4375L145.266 47.625C145.089 47.8802 144.846 48.125 144.539 48.3594C144.237 48.5938 143.872 48.7865 143.445 48.9375C143.018 49.0833 142.531 49.1562 141.984 49.1562ZM149.148 46.8125L150.906 40.5469H152.336L151.875 43.0078L150.117 49H148.922L149.148 46.8125ZM148.258 40.5469L149.516 46.8047L149.633 49H148.227L146.086 40.5469H148.258ZM153.945 46.7031L155.172 40.5469H157.352L155.211 49H153.812L153.945 46.7031ZM152.531 40.5469L154.281 46.7656L154.523 49H153.32L151.562 43.0156L151.117 40.5469H152.531ZM163.055 46.6641C163.055 46.5026 163.008 46.3568 162.914 46.2266C162.82 46.0964 162.646 45.9766 162.391 45.8672C162.141 45.7526 161.779 45.6484 161.305 45.5547C160.878 45.4609 160.479 45.3438 160.109 45.2031C159.745 45.0573 159.427 44.8828 159.156 44.6797C158.891 44.4766 158.682 44.237 158.531 43.9609C158.38 43.6797 158.305 43.3594 158.305 43C158.305 42.6458 158.38 42.3125 158.531 42C158.688 41.6875 158.909 41.4115 159.195 41.1719C159.487 40.9271 159.841 40.737 160.258 40.6016C160.68 40.4609 161.154 40.3906 161.68 40.3906C162.414 40.3906 163.044 40.5078 163.57 40.7422C164.102 40.9766 164.508 41.2995 164.789 41.7109C165.076 42.1172 165.219 42.5807 165.219 43.1016H162.969C162.969 42.8828 162.922 42.6875 162.828 42.5156C162.74 42.3385 162.599 42.2005 162.406 42.1016C162.219 41.9974 161.974 41.9453 161.672 41.9453C161.422 41.9453 161.206 41.9896 161.023 42.0781C160.841 42.1615 160.701 42.276 160.602 42.4219C160.508 42.5625 160.461 42.7188 160.461 42.8906C160.461 43.0208 160.487 43.138 160.539 43.2422C160.596 43.3411 160.688 43.4323 160.812 43.5156C160.938 43.599 161.099 43.6771 161.297 43.75C161.5 43.8177 161.75 43.8802 162.047 43.9375C162.656 44.0625 163.201 44.2266 163.68 44.4297C164.159 44.6276 164.539 44.8984 164.82 45.2422C165.102 45.5807 165.242 46.026 165.242 46.5781C165.242 46.9531 165.159 47.2969 164.992 47.6094C164.826 47.9219 164.586 48.1953 164.273 48.4297C163.961 48.6589 163.586 48.8385 163.148 48.9688C162.716 49.0938 162.229 49.1562 161.688 49.1562C160.901 49.1562 160.234 49.0156 159.688 48.7344C159.146 48.4531 158.734 48.0964 158.453 47.6641C158.177 47.2266 158.039 46.7786 158.039 46.3203H160.172C160.182 46.6276 160.26 46.875 160.406 47.0625C160.557 47.25 160.747 47.3854 160.977 47.4688C161.211 47.5521 161.464 47.5938 161.734 47.5938C162.026 47.5938 162.268 47.5547 162.461 47.4766C162.654 47.3932 162.799 47.2839 162.898 47.1484C163.003 47.0078 163.055 46.8464 163.055 46.6641Z" fill="#073042"/>
<path d="M24 82C24 80.8954 24.8954 80 26 80H202C203.105 80 204 80.8954 204 82V94C204 95.1046 203.105 96 202 96H26C24.8954 96 24 95.1046 24 94V82Z" fill="#073042"/>
<rect x="208" y="80" width="457" height="16" rx="2" fill="#4285F4"/>
<rect x="669" y="80" width="96" height="16" rx="2" fill="#3DDC84"/>
<path d="M41.2578 129.625V141H39.75V129.625H41.2578ZM46.0234 134.742V135.977H40.9297V134.742H46.0234ZM46.7969 129.625V130.859H40.9297V129.625H46.7969ZM51.7109 141.156C51.1224 141.156 50.5885 141.057 50.1094 140.859C49.6354 140.656 49.2266 140.372 48.8828 140.008C48.5443 139.643 48.2839 139.211 48.1016 138.711C47.9193 138.211 47.8281 137.664 47.8281 137.07V136.742C47.8281 136.055 47.9297 135.443 48.1328 134.906C48.3359 134.365 48.612 133.906 48.9609 133.531C49.3099 133.156 49.7057 132.872 50.1484 132.68C50.5911 132.487 51.0495 132.391 51.5234 132.391C52.1276 132.391 52.6484 132.495 53.0859 132.703C53.5286 132.911 53.8906 133.203 54.1719 133.578C54.4531 133.948 54.6615 134.385 54.7969 134.891C54.9323 135.391 55 135.938 55 136.531V137.18H48.6875V136H53.5547V135.891C53.5339 135.516 53.4557 135.151 53.3203 134.797C53.1901 134.443 52.9818 134.151 52.6953 133.922C52.4089 133.693 52.0182 133.578 51.5234 133.578C51.1953 133.578 50.8932 133.648 50.6172 133.789C50.3411 133.924 50.1042 134.128 49.9062 134.398C49.7083 134.669 49.5547 135 49.4453 135.391C49.3359 135.781 49.2812 136.232 49.2812 136.742V137.07C49.2812 137.471 49.3359 137.849 49.4453 138.203C49.5599 138.552 49.724 138.859 49.9375 139.125C50.1562 139.391 50.4193 139.599 50.7266 139.75C51.0391 139.901 51.3932 139.977 51.7891 139.977C52.2995 139.977 52.7318 139.872 53.0859 139.664C53.4401 139.456 53.75 139.177 54.0156 138.828L54.8906 139.523C54.7083 139.799 54.4766 140.062 54.1953 140.312C53.9141 140.562 53.5677 140.766 53.1562 140.922C52.75 141.078 52.2682 141.156 51.7109 141.156ZM56.6797 129H58.1328V139.359L58.0078 141H56.6797V129ZM63.8438 136.703V136.867C63.8438 137.482 63.7708 138.052 63.625 138.578C63.4792 139.099 63.2656 139.552 62.9844 139.938C62.7031 140.323 62.3594 140.622 61.9531 140.836C61.5469 141.049 61.0807 141.156 60.5547 141.156C60.0182 141.156 59.5469 141.065 59.1406 140.883C58.7396 140.695 58.401 140.427 58.125 140.078C57.849 139.729 57.6276 139.307 57.4609 138.812C57.2995 138.318 57.1875 137.76 57.125 137.141V136.422C57.1875 135.797 57.2995 135.237 57.4609 134.742C57.6276 134.247 57.849 133.826 58.125 133.477C58.401 133.122 58.7396 132.854 59.1406 132.672C59.5417 132.484 60.0078 132.391 60.5391 132.391C61.0703 132.391 61.5417 132.495 61.9531 132.703C62.3646 132.906 62.7083 133.198 62.9844 133.578C63.2656 133.958 63.4792 134.414 63.625 134.945C63.7708 135.471 63.8438 136.057 63.8438 136.703ZM62.3906 136.867V136.703C62.3906 136.281 62.3516 135.885 62.2734 135.516C62.1953 135.141 62.0703 134.812 61.8984 134.531C61.7266 134.245 61.5 134.021 61.2188 133.859C60.9375 133.693 60.5911 133.609 60.1797 133.609C59.8151 133.609 59.4974 133.672 59.2266 133.797C58.9609 133.922 58.7344 134.091 58.5469 134.305C58.3594 134.513 58.2057 134.753 58.0859 135.023C57.9714 135.289 57.8854 135.565 57.8281 135.852V137.734C57.9115 138.099 58.0469 138.451 58.2344 138.789C58.4271 139.122 58.6823 139.396 59 139.609C59.3229 139.823 59.7214 139.93 60.1953 139.93C60.5859 139.93 60.9193 139.852 61.1953 139.695C61.4766 139.534 61.7031 139.312 61.875 139.031C62.0521 138.75 62.1823 138.424 62.2656 138.055C62.349 137.685 62.3906 137.289 62.3906 136.867Z" fill="#3C4043"/>
<path d="M142.25 129.625H143.711L147.438 138.898L151.156 129.625H152.625L148 141H146.859L142.25 129.625ZM141.773 129.625H143.062L143.273 136.562V141H141.773V129.625ZM151.805 129.625H153.094V141H151.594V136.562L151.805 129.625ZM160.508 139.555V135.203C160.508 134.87 160.44 134.581 160.305 134.336C160.174 134.086 159.977 133.893 159.711 133.758C159.445 133.622 159.117 133.555 158.727 133.555C158.362 133.555 158.042 133.617 157.766 133.742C157.495 133.867 157.281 134.031 157.125 134.234C156.974 134.438 156.898 134.656 156.898 134.891H155.453C155.453 134.589 155.531 134.289 155.688 133.992C155.844 133.695 156.068 133.427 156.359 133.188C156.656 132.943 157.01 132.75 157.422 132.609C157.839 132.464 158.302 132.391 158.812 132.391C159.427 132.391 159.969 132.495 160.438 132.703C160.911 132.911 161.281 133.227 161.547 133.648C161.818 134.065 161.953 134.589 161.953 135.219V139.156C161.953 139.438 161.977 139.737 162.023 140.055C162.076 140.372 162.151 140.646 162.25 140.875V141H160.742C160.669 140.833 160.612 140.612 160.57 140.336C160.529 140.055 160.508 139.794 160.508 139.555ZM160.758 135.875L160.773 136.891H159.312C158.901 136.891 158.534 136.924 158.211 136.992C157.888 137.055 157.617 137.151 157.398 137.281C157.18 137.411 157.013 137.576 156.898 137.773C156.784 137.966 156.727 138.193 156.727 138.453C156.727 138.719 156.786 138.961 156.906 139.18C157.026 139.398 157.206 139.573 157.445 139.703C157.69 139.828 157.99 139.891 158.344 139.891C158.786 139.891 159.177 139.797 159.516 139.609C159.854 139.422 160.122 139.193 160.32 138.922C160.523 138.651 160.633 138.388 160.648 138.133L161.266 138.828C161.229 139.047 161.13 139.289 160.969 139.555C160.807 139.82 160.591 140.076 160.32 140.32C160.055 140.56 159.737 140.76 159.367 140.922C159.003 141.078 158.591 141.156 158.133 141.156C157.56 141.156 157.057 141.044 156.625 140.82C156.198 140.596 155.865 140.297 155.625 139.922C155.391 139.542 155.273 139.117 155.273 138.648C155.273 138.195 155.362 137.797 155.539 137.453C155.716 137.104 155.971 136.815 156.305 136.586C156.638 136.352 157.039 136.174 157.508 136.055C157.977 135.935 158.5 135.875 159.078 135.875H160.758ZM165.672 133.875V141H164.227V132.547H165.633L165.672 133.875ZM168.312 132.5L168.305 133.844C168.185 133.818 168.07 133.802 167.961 133.797C167.857 133.786 167.737 133.781 167.602 133.781C167.268 133.781 166.974 133.833 166.719 133.938C166.464 134.042 166.247 134.188 166.07 134.375C165.893 134.562 165.753 134.786 165.648 135.047C165.549 135.302 165.484 135.583 165.453 135.891L165.047 136.125C165.047 135.615 165.096 135.135 165.195 134.688C165.299 134.24 165.458 133.844 165.672 133.5C165.885 133.151 166.156 132.88 166.484 132.688C166.818 132.49 167.214 132.391 167.672 132.391C167.776 132.391 167.896 132.404 168.031 132.43C168.167 132.451 168.26 132.474 168.312 132.5Z" fill="#3C4043"/>
<path d="M250.609 130.633L246.844 141H245.305L249.641 129.625H250.633L250.609 130.633ZM253.766 141L249.992 130.633L249.969 129.625H250.961L255.312 141H253.766ZM253.57 136.789V138.023H247.18V136.789H253.57ZM258.062 134.172V144.25H256.609V132.547H257.938L258.062 134.172ZM263.758 136.703V136.867C263.758 137.482 263.685 138.052 263.539 138.578C263.393 139.099 263.18 139.552 262.898 139.938C262.622 140.323 262.281 140.622 261.875 140.836C261.469 141.049 261.003 141.156 260.477 141.156C259.94 141.156 259.466 141.068 259.055 140.891C258.643 140.714 258.294 140.456 258.008 140.117C257.721 139.779 257.492 139.372 257.32 138.898C257.154 138.424 257.039 137.891 256.977 137.297V136.422C257.039 135.797 257.156 135.237 257.328 134.742C257.5 134.247 257.727 133.826 258.008 133.477C258.294 133.122 258.641 132.854 259.047 132.672C259.453 132.484 259.922 132.391 260.453 132.391C260.984 132.391 261.456 132.495 261.867 132.703C262.279 132.906 262.625 133.198 262.906 133.578C263.188 133.958 263.398 134.414 263.539 134.945C263.685 135.471 263.758 136.057 263.758 136.703ZM262.305 136.867V136.703C262.305 136.281 262.26 135.885 262.172 135.516C262.083 135.141 261.945 134.812 261.758 134.531C261.576 134.245 261.341 134.021 261.055 133.859C260.768 133.693 260.427 133.609 260.031 133.609C259.667 133.609 259.349 133.672 259.078 133.797C258.812 133.922 258.586 134.091 258.398 134.305C258.211 134.513 258.057 134.753 257.938 135.023C257.823 135.289 257.737 135.565 257.68 135.852V137.875C257.784 138.24 257.93 138.583 258.117 138.906C258.305 139.224 258.555 139.482 258.867 139.68C259.18 139.872 259.573 139.969 260.047 139.969C260.438 139.969 260.773 139.888 261.055 139.727C261.341 139.56 261.576 139.333 261.758 139.047C261.945 138.76 262.083 138.432 262.172 138.062C262.26 137.688 262.305 137.289 262.305 136.867ZM267.047 133.875V141H265.602V132.547H267.008L267.047 133.875ZM269.688 132.5L269.68 133.844C269.56 133.818 269.445 133.802 269.336 133.797C269.232 133.786 269.112 133.781 268.977 133.781C268.643 133.781 268.349 133.833 268.094 133.938C267.839 134.042 267.622 134.188 267.445 134.375C267.268 134.562 267.128 134.786 267.023 135.047C266.924 135.302 266.859 135.583 266.828 135.891L266.422 136.125C266.422 135.615 266.471 135.135 266.57 134.688C266.674 134.24 266.833 133.844 267.047 133.5C267.26 133.151 267.531 132.88 267.859 132.688C268.193 132.49 268.589 132.391 269.047 132.391C269.151 132.391 269.271 132.404 269.406 132.43C269.542 132.451 269.635 132.474 269.688 132.5Z" fill="#3C4043"/>
<path d="M347.234 129.625H348.695L352.422 138.898L356.141 129.625H357.609L352.984 141H351.844L347.234 129.625ZM346.758 129.625H348.047L348.258 136.562V141H346.758V129.625ZM356.789 129.625H358.078V141H356.578V136.562L356.789 129.625ZM365.492 139.555V135.203C365.492 134.87 365.424 134.581 365.289 134.336C365.159 134.086 364.961 133.893 364.695 133.758C364.43 133.622 364.102 133.555 363.711 133.555C363.346 133.555 363.026 133.617 362.75 133.742C362.479 133.867 362.266 134.031 362.109 134.234C361.958 134.438 361.883 134.656 361.883 134.891H360.438C360.438 134.589 360.516 134.289 360.672 133.992C360.828 133.695 361.052 133.427 361.344 133.188C361.641 132.943 361.995 132.75 362.406 132.609C362.823 132.464 363.286 132.391 363.797 132.391C364.411 132.391 364.953 132.495 365.422 132.703C365.896 132.911 366.266 133.227 366.531 133.648C366.802 134.065 366.938 134.589 366.938 135.219V139.156C366.938 139.438 366.961 139.737 367.008 140.055C367.06 140.372 367.135 140.646 367.234 140.875V141H365.727C365.654 140.833 365.596 140.612 365.555 140.336C365.513 140.055 365.492 139.794 365.492 139.555ZM365.742 135.875L365.758 136.891H364.297C363.885 136.891 363.518 136.924 363.195 136.992C362.872 137.055 362.602 137.151 362.383 137.281C362.164 137.411 361.997 137.576 361.883 137.773C361.768 137.966 361.711 138.193 361.711 138.453C361.711 138.719 361.771 138.961 361.891 139.18C362.01 139.398 362.19 139.573 362.43 139.703C362.674 139.828 362.974 139.891 363.328 139.891C363.771 139.891 364.161 139.797 364.5 139.609C364.839 139.422 365.107 139.193 365.305 138.922C365.508 138.651 365.617 138.388 365.633 138.133L366.25 138.828C366.214 139.047 366.115 139.289 365.953 139.555C365.792 139.82 365.576 140.076 365.305 140.32C365.039 140.56 364.721 140.76 364.352 140.922C363.987 141.078 363.576 141.156 363.117 141.156C362.544 141.156 362.042 141.044 361.609 140.82C361.182 140.596 360.849 140.297 360.609 139.922C360.375 139.542 360.258 139.117 360.258 138.648C360.258 138.195 360.346 137.797 360.523 137.453C360.701 137.104 360.956 136.815 361.289 136.586C361.622 136.352 362.023 136.174 362.492 136.055C362.961 135.935 363.484 135.875 364.062 135.875H365.742ZM371.461 140.125L373.812 132.547H375.359L371.969 142.305C371.891 142.513 371.786 142.737 371.656 142.977C371.531 143.221 371.37 143.453 371.172 143.672C370.974 143.891 370.734 144.068 370.453 144.203C370.177 144.344 369.846 144.414 369.461 144.414C369.346 144.414 369.201 144.398 369.023 144.367C368.846 144.336 368.721 144.31 368.648 144.289L368.641 143.117C368.682 143.122 368.747 143.128 368.836 143.133C368.93 143.143 368.995 143.148 369.031 143.148C369.359 143.148 369.638 143.104 369.867 143.016C370.096 142.932 370.289 142.789 370.445 142.586C370.607 142.388 370.745 142.115 370.859 141.766L371.461 140.125ZM369.734 132.547L371.93 139.109L372.305 140.633L371.266 141.164L368.156 132.547H369.734Z" fill="#3C4043"/>
<path d="M456.344 137.68V129.625H457.844V137.68C457.844 138.43 457.69 139.062 457.383 139.578C457.076 140.094 456.651 140.487 456.109 140.758C455.573 141.023 454.956 141.156 454.258 141.156C453.56 141.156 452.94 141.036 452.398 140.797C451.857 140.557 451.432 140.193 451.125 139.703C450.818 139.214 450.664 138.596 450.664 137.852H452.172C452.172 138.331 452.26 138.724 452.438 139.031C452.615 139.339 452.859 139.565 453.172 139.711C453.49 139.857 453.852 139.93 454.258 139.93C454.654 139.93 455.008 139.846 455.32 139.68C455.638 139.508 455.888 139.255 456.07 138.922C456.253 138.583 456.344 138.169 456.344 137.68ZM465.352 139.047V132.547H466.805V141H465.422L465.352 139.047ZM465.625 137.266L466.227 137.25C466.227 137.812 466.167 138.333 466.047 138.812C465.932 139.286 465.745 139.698 465.484 140.047C465.224 140.396 464.883 140.669 464.461 140.867C464.039 141.06 463.526 141.156 462.922 141.156C462.51 141.156 462.133 141.096 461.789 140.977C461.451 140.857 461.159 140.672 460.914 140.422C460.669 140.172 460.479 139.846 460.344 139.445C460.214 139.044 460.148 138.562 460.148 138V132.547H461.594V138.016C461.594 138.396 461.635 138.711 461.719 138.961C461.807 139.206 461.924 139.401 462.07 139.547C462.221 139.688 462.388 139.786 462.57 139.844C462.758 139.901 462.951 139.93 463.148 139.93C463.763 139.93 464.25 139.812 464.609 139.578C464.969 139.339 465.227 139.018 465.383 138.617C465.544 138.211 465.625 137.76 465.625 137.266ZM470.453 134.352V141H469.008V132.547H470.375L470.453 134.352ZM470.109 136.453L469.508 136.43C469.513 135.852 469.599 135.318 469.766 134.828C469.932 134.333 470.167 133.904 470.469 133.539C470.771 133.174 471.13 132.893 471.547 132.695C471.969 132.492 472.435 132.391 472.945 132.391C473.362 132.391 473.737 132.448 474.07 132.562C474.404 132.672 474.688 132.849 474.922 133.094C475.161 133.339 475.344 133.656 475.469 134.047C475.594 134.432 475.656 134.904 475.656 135.461V141H474.203V135.445C474.203 135.003 474.138 134.648 474.008 134.383C473.878 134.112 473.688 133.917 473.438 133.797C473.188 133.672 472.88 133.609 472.516 133.609C472.156 133.609 471.828 133.685 471.531 133.836C471.24 133.987 470.987 134.195 470.773 134.461C470.565 134.727 470.401 135.031 470.281 135.375C470.167 135.714 470.109 136.073 470.109 136.453Z" fill="#3C4043"/>
<path d="M561.82 137.68V129.625H563.32V137.68C563.32 138.43 563.167 139.062 562.859 139.578C562.552 140.094 562.128 140.487 561.586 140.758C561.049 141.023 560.432 141.156 559.734 141.156C559.036 141.156 558.417 141.036 557.875 140.797C557.333 140.557 556.909 140.193 556.602 139.703C556.294 139.214 556.141 138.596 556.141 137.852H557.648C557.648 138.331 557.737 138.724 557.914 139.031C558.091 139.339 558.336 139.565 558.648 139.711C558.966 139.857 559.328 139.93 559.734 139.93C560.13 139.93 560.484 139.846 560.797 139.68C561.115 139.508 561.365 139.255 561.547 138.922C561.729 138.583 561.82 138.169 561.82 137.68ZM570.828 139.047V132.547H572.281V141H570.898L570.828 139.047ZM571.102 137.266L571.703 137.25C571.703 137.812 571.643 138.333 571.523 138.812C571.409 139.286 571.221 139.698 570.961 140.047C570.701 140.396 570.359 140.669 569.938 140.867C569.516 141.06 569.003 141.156 568.398 141.156C567.987 141.156 567.609 141.096 567.266 140.977C566.927 140.857 566.635 140.672 566.391 140.422C566.146 140.172 565.956 139.846 565.82 139.445C565.69 139.044 565.625 138.562 565.625 138V132.547H567.07V138.016C567.07 138.396 567.112 138.711 567.195 138.961C567.284 139.206 567.401 139.401 567.547 139.547C567.698 139.688 567.865 139.786 568.047 139.844C568.234 139.901 568.427 139.93 568.625 139.93C569.24 139.93 569.727 139.812 570.086 139.578C570.445 139.339 570.703 139.018 570.859 138.617C571.021 138.211 571.102 137.76 571.102 137.266ZM576.055 129V141H574.602V129H576.055Z" fill="#3C4043"/>
<path d="M672.359 129.625V141H670.016V129.625H672.359ZM676.891 134.484V136.312H671.719V134.484H676.891ZM677.438 129.625V131.461H671.719V129.625H677.438ZM681.031 132.547V141H678.773V132.547H681.031ZM678.633 130.344C678.633 130.016 678.747 129.745 678.977 129.531C679.206 129.318 679.513 129.211 679.898 129.211C680.279 129.211 680.583 129.318 680.812 129.531C681.047 129.745 681.164 130.016 681.164 130.344C681.164 130.672 681.047 130.943 680.812 131.156C680.583 131.37 680.279 131.477 679.898 131.477C679.513 131.477 679.206 131.37 678.977 131.156C678.747 130.943 678.633 130.672 678.633 130.344ZM685.094 134.352V141H682.844V132.547H684.953L685.094 134.352ZM684.766 136.477H684.156C684.156 135.852 684.237 135.289 684.398 134.789C684.56 134.284 684.786 133.854 685.078 133.5C685.37 133.141 685.716 132.867 686.117 132.68C686.523 132.487 686.977 132.391 687.477 132.391C687.872 132.391 688.234 132.448 688.562 132.562C688.891 132.677 689.172 132.859 689.406 133.109C689.646 133.359 689.828 133.69 689.953 134.102C690.083 134.513 690.148 135.016 690.148 135.609V141H687.883V135.602C687.883 135.227 687.831 134.935 687.727 134.727C687.622 134.518 687.469 134.372 687.266 134.289C687.068 134.201 686.823 134.156 686.531 134.156C686.229 134.156 685.966 134.216 685.742 134.336C685.523 134.456 685.341 134.622 685.195 134.836C685.055 135.044 684.948 135.289 684.875 135.57C684.802 135.852 684.766 136.154 684.766 136.477ZM696.422 139.094V135.328C696.422 135.057 696.378 134.826 696.289 134.633C696.201 134.435 696.062 134.281 695.875 134.172C695.693 134.062 695.456 134.008 695.164 134.008C694.914 134.008 694.698 134.052 694.516 134.141C694.333 134.224 694.193 134.346 694.094 134.508C693.995 134.664 693.945 134.849 693.945 135.062H691.695C691.695 134.703 691.779 134.362 691.945 134.039C692.112 133.716 692.354 133.432 692.672 133.188C692.99 132.938 693.367 132.742 693.805 132.602C694.247 132.461 694.742 132.391 695.289 132.391C695.945 132.391 696.529 132.5 697.039 132.719C697.549 132.938 697.951 133.266 698.242 133.703C698.539 134.141 698.688 134.688 698.688 135.344V138.961C698.688 139.424 698.716 139.805 698.773 140.102C698.831 140.393 698.914 140.648 699.023 140.867V141H696.75C696.641 140.771 696.557 140.484 696.5 140.141C696.448 139.792 696.422 139.443 696.422 139.094ZM696.719 135.852L696.734 137.125H695.477C695.18 137.125 694.922 137.159 694.703 137.227C694.484 137.294 694.305 137.391 694.164 137.516C694.023 137.635 693.919 137.776 693.852 137.938C693.789 138.099 693.758 138.276 693.758 138.469C693.758 138.661 693.802 138.836 693.891 138.992C693.979 139.143 694.107 139.263 694.273 139.352C694.44 139.435 694.635 139.477 694.859 139.477C695.198 139.477 695.492 139.409 695.742 139.273C695.992 139.138 696.185 138.971 696.32 138.773C696.461 138.576 696.534 138.388 696.539 138.211L697.133 139.164C697.049 139.378 696.935 139.599 696.789 139.828C696.648 140.057 696.469 140.273 696.25 140.477C696.031 140.674 695.768 140.839 695.461 140.969C695.154 141.094 694.789 141.156 694.367 141.156C693.831 141.156 693.344 141.049 692.906 140.836C692.474 140.617 692.13 140.318 691.875 139.938C691.625 139.552 691.5 139.115 691.5 138.625C691.5 138.182 691.583 137.789 691.75 137.445C691.917 137.102 692.161 136.812 692.484 136.578C692.812 136.339 693.221 136.159 693.711 136.039C694.201 135.914 694.768 135.852 695.414 135.852H696.719ZM702.797 129V141H700.539V129H702.797ZM708.781 129.625H713.023C713.893 129.625 714.641 129.755 715.266 130.016C715.896 130.276 716.38 130.661 716.719 131.172C717.057 131.682 717.227 132.31 717.227 133.055C717.227 133.664 717.122 134.188 716.914 134.625C716.711 135.057 716.422 135.419 716.047 135.711C715.677 135.997 715.242 136.227 714.742 136.398L714 136.789H710.312L710.297 134.961H713.039C713.451 134.961 713.792 134.888 714.062 134.742C714.333 134.596 714.536 134.393 714.672 134.133C714.812 133.872 714.883 133.57 714.883 133.227C714.883 132.862 714.815 132.547 714.68 132.281C714.544 132.016 714.339 131.812 714.062 131.672C713.786 131.531 713.44 131.461 713.023 131.461H711.125V141H708.781V129.625ZM715.141 141L712.547 135.93L715.023 135.914L717.648 140.891V141H715.141ZM722.781 141.156C722.125 141.156 721.536 141.052 721.016 140.844C720.495 140.63 720.052 140.336 719.688 139.961C719.328 139.586 719.052 139.151 718.859 138.656C718.667 138.156 718.57 137.625 718.57 137.062V136.75C718.57 136.109 718.661 135.523 718.844 134.992C719.026 134.461 719.286 134 719.625 133.609C719.969 133.219 720.385 132.919 720.875 132.711C721.365 132.497 721.917 132.391 722.531 132.391C723.13 132.391 723.661 132.49 724.125 132.688C724.589 132.885 724.977 133.167 725.289 133.531C725.607 133.896 725.846 134.333 726.008 134.844C726.169 135.349 726.25 135.911 726.25 136.531V137.469H719.531V135.969H724.039V135.797C724.039 135.484 723.982 135.206 723.867 134.961C723.758 134.711 723.591 134.513 723.367 134.367C723.143 134.221 722.857 134.148 722.508 134.148C722.211 134.148 721.956 134.214 721.742 134.344C721.529 134.474 721.354 134.656 721.219 134.891C721.089 135.125 720.99 135.401 720.922 135.719C720.859 136.031 720.828 136.375 720.828 136.75V137.062C720.828 137.401 720.875 137.714 720.969 138C721.068 138.286 721.206 138.534 721.383 138.742C721.565 138.951 721.784 139.112 722.039 139.227C722.299 139.341 722.594 139.398 722.922 139.398C723.328 139.398 723.706 139.32 724.055 139.164C724.409 139.003 724.714 138.76 724.969 138.438L726.062 139.625C725.885 139.88 725.643 140.125 725.336 140.359C725.034 140.594 724.669 140.786 724.242 140.938C723.815 141.083 723.328 141.156 722.781 141.156ZM729.906 129V141H727.648V129H729.906ZM735.656 141.156C735 141.156 734.411 141.052 733.891 140.844C733.37 140.63 732.927 140.336 732.562 139.961C732.203 139.586 731.927 139.151 731.734 138.656C731.542 138.156 731.445 137.625 731.445 137.062V136.75C731.445 136.109 731.536 135.523 731.719 134.992C731.901 134.461 732.161 134 732.5 133.609C732.844 133.219 733.26 132.919 733.75 132.711C734.24 132.497 734.792 132.391 735.406 132.391C736.005 132.391 736.536 132.49 737 132.688C737.464 132.885 737.852 133.167 738.164 133.531C738.482 133.896 738.721 134.333 738.883 134.844C739.044 135.349 739.125 135.911 739.125 136.531V137.469H732.406V135.969H736.914V135.797C736.914 135.484 736.857 135.206 736.742 134.961C736.633 134.711 736.466 134.513 736.242 134.367C736.018 134.221 735.732 134.148 735.383 134.148C735.086 134.148 734.831 134.214 734.617 134.344C734.404 134.474 734.229 134.656 734.094 134.891C733.964 135.125 733.865 135.401 733.797 135.719C733.734 136.031 733.703 136.375 733.703 136.75V137.062C733.703 137.401 733.75 137.714 733.844 138C733.943 138.286 734.081 138.534 734.258 138.742C734.44 138.951 734.659 139.112 734.914 139.227C735.174 139.341 735.469 139.398 735.797 139.398C736.203 139.398 736.581 139.32 736.93 139.164C737.284 139.003 737.589 138.76 737.844 138.438L738.938 139.625C738.76 139.88 738.518 140.125 738.211 140.359C737.909 140.594 737.544 140.786 737.117 140.938C736.69 141.083 736.203 141.156 735.656 141.156ZM744.969 139.094V135.328C744.969 135.057 744.924 134.826 744.836 134.633C744.747 134.435 744.609 134.281 744.422 134.172C744.24 134.062 744.003 134.008 743.711 134.008C743.461 134.008 743.245 134.052 743.062 134.141C742.88 134.224 742.74 134.346 742.641 134.508C742.542 134.664 742.492 134.849 742.492 135.062H740.242C740.242 134.703 740.326 134.362 740.492 134.039C740.659 133.716 740.901 133.432 741.219 133.188C741.536 132.938 741.914 132.742 742.352 132.602C742.794 132.461 743.289 132.391 743.836 132.391C744.492 132.391 745.076 132.5 745.586 132.719C746.096 132.938 746.497 133.266 746.789 133.703C747.086 134.141 747.234 134.688 747.234 135.344V138.961C747.234 139.424 747.263 139.805 747.32 140.102C747.378 140.393 747.461 140.648 747.57 140.867V141H745.297C745.188 140.771 745.104 140.484 745.047 140.141C744.995 139.792 744.969 139.443 744.969 139.094ZM745.266 135.852L745.281 137.125H744.023C743.727 137.125 743.469 137.159 743.25 137.227C743.031 137.294 742.852 137.391 742.711 137.516C742.57 137.635 742.466 137.776 742.398 137.938C742.336 138.099 742.305 138.276 742.305 138.469C742.305 138.661 742.349 138.836 742.438 138.992C742.526 139.143 742.654 139.263 742.82 139.352C742.987 139.435 743.182 139.477 743.406 139.477C743.745 139.477 744.039 139.409 744.289 139.273C744.539 139.138 744.732 138.971 744.867 138.773C745.008 138.576 745.081 138.388 745.086 138.211L745.68 139.164C745.596 139.378 745.482 139.599 745.336 139.828C745.195 140.057 745.016 140.273 744.797 140.477C744.578 140.674 744.315 140.839 744.008 140.969C743.701 141.094 743.336 141.156 742.914 141.156C742.378 141.156 741.891 141.049 741.453 140.836C741.021 140.617 740.677 140.318 740.422 139.938C740.172 139.552 740.047 139.115 740.047 138.625C740.047 138.182 740.13 137.789 740.297 137.445C740.464 137.102 740.708 136.812 741.031 136.578C741.359 136.339 741.768 136.159 742.258 136.039C742.747 135.914 743.315 135.852 743.961 135.852H745.266ZM753.539 138.664C753.539 138.503 753.492 138.357 753.398 138.227C753.305 138.096 753.13 137.977 752.875 137.867C752.625 137.753 752.263 137.648 751.789 137.555C751.362 137.461 750.964 137.344 750.594 137.203C750.229 137.057 749.911 136.883 749.641 136.68C749.375 136.477 749.167 136.237 749.016 135.961C748.865 135.68 748.789 135.359 748.789 135C748.789 134.646 748.865 134.312 749.016 134C749.172 133.688 749.393 133.411 749.68 133.172C749.971 132.927 750.326 132.737 750.742 132.602C751.164 132.461 751.638 132.391 752.164 132.391C752.898 132.391 753.529 132.508 754.055 132.742C754.586 132.977 754.992 133.299 755.273 133.711C755.56 134.117 755.703 134.581 755.703 135.102H753.453C753.453 134.883 753.406 134.688 753.312 134.516C753.224 134.339 753.083 134.201 752.891 134.102C752.703 133.997 752.458 133.945 752.156 133.945C751.906 133.945 751.69 133.99 751.508 134.078C751.326 134.161 751.185 134.276 751.086 134.422C750.992 134.562 750.945 134.719 750.945 134.891C750.945 135.021 750.971 135.138 751.023 135.242C751.081 135.341 751.172 135.432 751.297 135.516C751.422 135.599 751.583 135.677 751.781 135.75C751.984 135.818 752.234 135.88 752.531 135.938C753.141 136.062 753.685 136.227 754.164 136.43C754.643 136.628 755.023 136.898 755.305 137.242C755.586 137.581 755.727 138.026 755.727 138.578C755.727 138.953 755.643 139.297 755.477 139.609C755.31 139.922 755.07 140.195 754.758 140.43C754.445 140.659 754.07 140.839 753.633 140.969C753.201 141.094 752.714 141.156 752.172 141.156C751.385 141.156 750.719 141.016 750.172 140.734C749.63 140.453 749.219 140.096 748.938 139.664C748.661 139.227 748.523 138.779 748.523 138.32H750.656C750.667 138.628 750.745 138.875 750.891 139.062C751.042 139.25 751.232 139.385 751.461 139.469C751.695 139.552 751.948 139.594 752.219 139.594C752.51 139.594 752.753 139.555 752.945 139.477C753.138 139.393 753.284 139.284 753.383 139.148C753.487 139.008 753.539 138.846 753.539 138.664ZM761.078 141.156C760.422 141.156 759.833 141.052 759.312 140.844C758.792 140.63 758.349 140.336 757.984 139.961C757.625 139.586 757.349 139.151 757.156 138.656C756.964 138.156 756.867 137.625 756.867 137.062V136.75C756.867 136.109 756.958 135.523 757.141 134.992C757.323 134.461 757.583 134 757.922 133.609C758.266 133.219 758.682 132.919 759.172 132.711C759.661 132.497 760.214 132.391 760.828 132.391C761.427 132.391 761.958 132.49 762.422 132.688C762.885 132.885 763.273 133.167 763.586 133.531C763.904 133.896 764.143 134.333 764.305 134.844C764.466 135.349 764.547 135.911 764.547 136.531V137.469H757.828V135.969H762.336V135.797C762.336 135.484 762.279 135.206 762.164 134.961C762.055 134.711 761.888 134.513 761.664 134.367C761.44 134.221 761.154 134.148 760.805 134.148C760.508 134.148 760.253 134.214 760.039 134.344C759.826 134.474 759.651 134.656 759.516 134.891C759.385 135.125 759.286 135.401 759.219 135.719C759.156 136.031 759.125 136.375 759.125 136.75V137.062C759.125 137.401 759.172 137.714 759.266 138C759.365 138.286 759.503 138.534 759.68 138.742C759.862 138.951 760.081 139.112 760.336 139.227C760.596 139.341 760.891 139.398 761.219 139.398C761.625 139.398 762.003 139.32 762.352 139.164C762.706 139.003 763.01 138.76 763.266 138.438L764.359 139.625C764.182 139.88 763.94 140.125 763.633 140.359C763.331 140.594 762.966 140.786 762.539 140.938C762.112 141.083 761.625 141.156 761.078 141.156Z" fill="#188038"/>
<circle cx="49" cy="88" r="3" fill="#F8F9FA"/>
<circle cx="153" cy="88" r="3" fill="#F8F9FA"/>
<circle cx="257" cy="88" r="3" fill="#F8F9FA"/>
<circle cx="361" cy="88" r="3" fill="#F8F9FA"/>
<circle cx="465" cy="88" r="3" fill="#F8F9FA"/>
<circle cx="569" cy="88" r="3" fill="#F8F9FA"/>
<circle cx="717" cy="88" r="3" fill="#F8F9FA"/>
<rect x="613" y="135" width="32" height="2" fill="#DADCE0"/>
</svg>
